<svg xmlns="http://www.w3.org/2000/svg" viewBox="0 0 835 288"><defs><style>.cls-1{fill:#e6fbff;}.cls-2{fill:#b0bec5;}.cls-3{fill:#93d3e2;}.cls-4{fill:#73bed8;}.cls-5{fill:#5bb0d6;}.cls-6{fill:#48a4d8;}.cls-7{fill:#d6fafc;}.cls-8{fill:#bbeaef;}.cls-9{fill:#add9e0;}.cls-10{fill:#fbb040;}.cls-11{fill:#43bf43;}.cls-12{fill:#4b6c7e;}.cls-13{fill:#73c073;}.cls-14{fill:#f8a555;}.cls-15,.cls-17,.cls-25,.cls-31{fill:#fff;}.cls-15,.cls-25,.cls-31{stroke:#d7f0ff;}.cls-15,.cls-16,.cls-18,.cls-25,.cls-27,.cls-30,.cls-31,.cls-32,.cls-33{stroke-miterlimit:10;}.cls-15{stroke-width:1.57px;}.cls-16,.cls-22,.cls-32{fill:#70bef2;}.cls-16,.cls-32{stroke:#70bef2;}.cls-16{stroke-width:1.89px;}.cls-18,.cls-29,.cls-30,.cls-33{fill:#becbd2;}.cls-18,.cls-30,.cls-33{stroke:#becbd2;}.cls-18{stroke-width:0.48px;}.cls-19{fill:#bdddf4;}.cls-20{fill:#71be72;}.cls-21,.cls-27{fill:#39c;}.cls-23{fill:#788085;}.cls-24{fill:#21333a;}.cls-25{stroke-width:1.32px;}.cls-26{fill:#d7f0ff;}.cls-27{stroke:#39c;}.cls-28{fill:#f79a2b;}.cls-30{stroke-width:0.33px;}.cls-31,.cls-32{stroke-width:1.4px;}.cls-33{stroke-width:0.35px;}</style></defs><title>Data-analytics-services</title><g id="Layer_6" data-name="Layer 6"><circle class="cls-1" cx="317.32" cy="168.66" r="81.76"/></g><g id="Layer_3" data-name="Layer 3"><path class="cls-2" d="M111.49,238.28a8.12,8.12,0,0,0,16.2.89H185L259.25,188c.13.15.26.3.4.44a8.12,8.12,0,0,0,13.82-4.85h16.66A8.12,8.12,0,1,0,304,177a8.06,8.06,0,0,0-3.13-1.94l8.48-29.23a8,8,0,0,0,1.39.13,8.13,8.13,0,0,0,5.74-2.38,7.89,7.89,0,0,0,1.21-1.56l45.65,21a8,8,0,0,0-.43,2.57,8.12,8.12,0,0,0,8.13,8.13,8,8,0,0,0,2.47-.39l21.7,49.12a7.76,7.76,0,0,0-1.1.92,8.13,8.13,0,1,0,13.87,5.75,7.73,7.73,0,0,0-.12-1.38l25.15-8.21a8,8,0,0,0,1.64,2.38,8.1,8.1,0,0,0,10.57.78l35.91,38.74a8.12,8.12,0,1,0,13.28.19l71.17-80a8.07,8.07,0,0,0,8.85,1.21l26.7,56.37h43a8.15,8.15,0,1,0,0-1.78H602.15l-26.27-55.53a7.87,7.87,0,0,0,.72-.64,8.13,8.13,0,1,0-12.3-1l-71.13,80a8.1,8.1,0,0,0-10.9-.16l-35.81-38.63a8.12,8.12,0,1,0-14.26-5.32,7.85,7.85,0,0,0,.18,1.68L407.31,226a8.12,8.12,0,0,0-10.59-4.43l-21.64-49a7.9,7.9,0,0,0,1.65-1.26,8.13,8.13,0,1,0-11.49-11.49,7.92,7.92,0,0,0-1.21,1.56l-45.65-21a8,8,0,0,0,.42-2.56,8.13,8.13,0,1,0-11.23,7.51l-8.51,29.33a7.8,7.8,0,0,0-.87,0,8.12,8.12,0,0,0-8.08,7.24H273.47a8.12,8.12,0,1,0-15.23,4.74l-73.82,50.83H127.69a8.12,8.12,0,0,0-16.2.89Z"/><rect class="cls-3" x="646.91" y="128.55" width="12.53" height="7.45"/><rect class="cls-4" x="646.91" y="139.51" width="12.53" height="7.45"/><rect class="cls-4" x="646.91" y="150.55" width="12.53" height="7.45"/><rect class="cls-4" x="646.91" y="161.51" width="12.53" height="7.45"/><rect class="cls-5" x="646.91" y="172.73" width="12.53" height="7.45"/><rect class="cls-5" x="646.91" y="183.69" width="12.53" height="7.45"/><rect class="cls-5" x="646.91" y="194.73" width="12.53" height="7.45"/><rect class="cls-6" x="646.91" y="205.69" width="12.53" height="7.45"/><rect class="cls-3" x="624.74" y="128.28" width="12.53" height="7.45"/><rect class="cls-4" x="624.74" y="139.24" width="12.53" height="7.45"/><rect class="cls-4" x="624.74" y="150.28" width="12.53" height="7.45"/><rect class="cls-4" x="624.74" y="161.24" width="12.53" height="7.45"/><rect class="cls-5" x="624.74" y="172.46" width="12.53" height="7.45"/><rect class="cls-5" x="624.74" y="183.42" width="12.53" height="7.45"/><rect class="cls-5" x="624.74" y="194.47" width="12.53" height="7.45"/><rect class="cls-6" x="624.74" y="205.42" width="12.53" height="7.45"/><rect class="cls-6" x="624.74" y="216.49" width="12.53" height="7.45"/><rect class="cls-7" x="602.94" y="28.94" width="12.53" height="7.45"/><rect class="cls-8" x="602.94" y="40.01" width="12.53" height="7.45"/><rect class="cls-3" x="602.94" y="128.46" width="12.53" height="7.45"/><rect class="cls-4" x="602.94" y="139.42" width="12.53" height="7.45"/><rect class="cls-4" x="602.94" y="150.47" width="12.53" height="7.45"/><rect class="cls-4" x="602.94" y="161.42" width="12.53" height="7.45"/><rect class="cls-5" x="602.94" y="172.65" width="12.53" height="7.45"/><rect class="cls-5" x="602.94" y="183.6" width="12.53" height="7.45"/><rect class="cls-5" x="602.94" y="194.65" width="12.53" height="7.45"/><rect class="cls-6" x="602.94" y="205.6" width="12.53" height="7.45"/><rect class="cls-6" x="602.94" y="216.67" width="12.53" height="7.45"/><rect class="cls-3" x="580.77" y="95.49" width="12.53" height="7.45"/><rect class="cls-3" x="580.77" y="106.54" width="12.53" height="7.45"/><rect class="cls-3" x="580.77" y="117.49" width="12.53" height="7.45"/><rect class="cls-3" x="580.77" y="128.56" width="12.53" height="7.45"/><rect class="cls-4" x="580.77" y="139.52" width="12.53" height="7.45"/><rect class="cls-4" x="580.77" y="150.56" width="12.53" height="7.45"/><rect class="cls-4" x="580.77" y="161.52" width="12.53" height="7.45"/><rect class="cls-5" x="580.77" y="172.74" width="12.53" height="7.45"/><rect class="cls-5" x="580.77" y="183.7" width="12.53" height="7.45"/><rect class="cls-7" x="558.39" y="18.07" width="12.53" height="7.45"/><rect class="cls-8" x="558.39" y="40.1" width="12.53" height="7.45"/><rect class="cls-8" x="558.39" y="51.06" width="12.53" height="7.45"/><rect class="cls-9" x="558.39" y="62.1" width="12.53" height="7.45"/><rect class="cls-9" x="558.39" y="73.06" width="12.53" height="7.45"/><rect class="cls-3" x="558.39" y="84.53" width="12.53" height="7.45"/><rect class="cls-3" x="558.39" y="95.48" width="12.53" height="7.45"/><rect class="cls-3" x="558.39" y="106.53" width="12.53" height="7.45"/><rect class="cls-3" x="558.39" y="117.48" width="12.53" height="7.45"/><rect class="cls-3" x="558.39" y="128.55" width="12.53" height="7.45"/><rect class="cls-4" x="558.39" y="139.51" width="12.53" height="7.45"/><rect class="cls-4" x="558.39" y="150.55" width="12.53" height="7.45"/><rect class="cls-7" x="536.22" y="28.76" width="12.53" height="7.45"/><rect class="cls-8" x="536.22" y="39.83" width="12.53" height="7.45"/><rect class="cls-8" x="536.22" y="50.79" width="12.53" height="7.45"/><rect class="cls-9" x="536.22" y="61.83" width="12.53" height="7.45"/><rect class="cls-9" x="536.22" y="72.79" width="12.53" height="7.45"/><rect class="cls-3" x="536.22" y="84.26" width="12.53" height="7.45"/><rect class="cls-3" x="536.22" y="95.21" width="12.53" height="7.45"/><rect class="cls-3" x="536.22" y="106.26" width="12.53" height="7.45"/><rect class="cls-3" x="536.22" y="117.21" width="12.53" height="7.45"/><rect class="cls-3" x="536.22" y="128.29" width="12.53" height="7.45"/><rect class="cls-4" x="536.22" y="139.24" width="12.53" height="7.45"/><rect class="cls-4" x="536.22" y="150.29" width="12.53" height="7.45"/><rect class="cls-4" x="536.22" y="161.24" width="12.53" height="7.45"/><rect class="cls-5" x="536.22" y="172.47" width="12.53" height="7.45"/><rect class="cls-5" x="536.22" y="183.42" width="12.53" height="7.45"/><rect class="cls-9" x="514.43" y="72.97" width="12.53" height="7.45"/><rect class="cls-3" x="514.43" y="84.44" width="12.53" height="7.45"/><rect class="cls-3" x="514.43" y="95.4" width="12.53" height="7.45"/><rect class="cls-5" x="514.43" y="172.65" width="12.53" height="7.45"/><rect class="cls-5" x="514.43" y="183.6" width="12.53" height="7.45"/><rect class="cls-5" x="514.43" y="194.65" width="12.53" height="7.45"/><rect class="cls-6" x="514.43" y="205.6" width="12.53" height="7.45"/><rect class="cls-9" x="492.25" y="62.11" width="12.53" height="7.45"/><rect class="cls-9" x="492.25" y="73.07" width="12.53" height="7.45"/><rect class="cls-3" x="492.25" y="95.49" width="12.53" height="7.45"/><rect class="cls-3" x="492.25" y="106.54" width="12.53" height="7.45"/><rect class="cls-3" x="469.25" y="106.54" width="12.53" height="7.45"/><rect class="cls-5" x="492.25" y="172.75" width="12.53" height="7.45"/><rect class="cls-5" x="492.25" y="183.7" width="12.53" height="7.45"/><rect class="cls-5" x="492.25" y="194.75" width="12.53" height="7.45"/><rect class="cls-6" x="492.25" y="205.7" width="12.53" height="7.45"/><rect class="cls-6" x="492.25" y="216.77" width="12.53" height="7.45"/><rect class="cls-6" x="492.25" y="227.73" width="12.53" height="7.45"/><rect class="cls-7" x="469.32" y="28.99" width="12.53" height="7.45"/><rect class="cls-3" x="469.32" y="117.44" width="12.53" height="7.45"/><rect class="cls-5" x="469.32" y="172.69" width="12.53" height="7.45"/><rect class="cls-5" x="469.32" y="183.65" width="12.53" height="7.45"/><rect class="cls-5" x="469.32" y="194.69" width="12.53" height="7.45"/><rect class="cls-6" x="469.32" y="205.65" width="12.53" height="7.45"/><rect class="cls-6" x="469.32" y="216.72" width="12.53" height="7.45"/><rect class="cls-6" x="469.32" y="227.67" width="12.53" height="7.45"/><rect class="cls-9" x="447.14" y="72.75" width="12.53" height="7.45"/><rect class="cls-3" x="447.14" y="95.17" width="12.53" height="7.45"/><rect class="cls-3" x="447.14" y="106.22" width="12.53" height="7.45"/><rect class="cls-3" x="447.14" y="117.17" width="12.53" height="7.45"/><rect class="cls-3" x="447.14" y="128.24" width="12.53" height="7.45"/><rect class="cls-4" x="447.14" y="139.2" width="12.53" height="7.45"/><rect class="cls-4" x="447.14" y="150.24" width="12.53" height="7.45"/><rect class="cls-4" x="447.14" y="161.2" width="12.53" height="7.45"/><rect class="cls-5" x="447.14" y="172.42" width="12.53" height="7.45"/><rect class="cls-5" x="447.14" y="183.38" width="12.53" height="7.45"/><rect class="cls-5" x="447.14" y="194.42" width="12.53" height="7.45"/><rect class="cls-9" x="425.35" y="61.97" width="12.53" height="7.45"/><rect class="cls-9" x="425.35" y="72.93" width="12.53" height="7.45"/><rect class="cls-3" x="425.35" y="84.4" width="12.53" height="7.45"/><rect class="cls-3" x="425.35" y="95.35" width="12.53" height="7.45"/><rect class="cls-3" x="425.35" y="106.4" width="12.53" height="7.45"/><rect class="cls-3" x="425.35" y="117.35" width="12.53" height="7.45"/><rect class="cls-3" x="425.35" y="128.42" width="12.53" height="7.45"/><rect class="cls-4" x="425.35" y="139.38" width="12.53" height="7.45"/><rect class="cls-4" x="425.35" y="150.42" width="12.53" height="7.45"/><rect class="cls-4" x="425.35" y="161.38" width="12.53" height="7.45"/><rect class="cls-5" x="425.35" y="172.6" width="12.53" height="7.45"/><rect class="cls-5" x="425.35" y="183.56" width="12.53" height="7.45"/><rect class="cls-5" x="425.35" y="194.6" width="12.53" height="7.45"/><rect class="cls-3" x="403.17" y="106.5" width="12.53" height="7.45"/><rect class="cls-3" x="403.17" y="128.52" width="12.53" height="7.45"/><rect class="cls-4" x="403.17" y="139.48" width="12.53" height="7.45"/><rect class="cls-4" x="403.17" y="150.52" width="12.53" height="7.45"/><rect class="cls-4" x="403.17" y="161.48" width="12.53" height="7.45"/><rect class="cls-5" x="403.17" y="172.7" width="12.53" height="7.45"/><rect class="cls-5" x="403.17" y="183.66" width="12.53" height="7.45"/><rect class="cls-5" x="403.17" y="194.7" width="12.53" height="7.45"/><rect class="cls-6" x="403.17" y="205.66" width="12.53" height="7.45"/><rect class="cls-7" x="380.8" y="28.99" width="12.53" height="7.45"/><rect class="cls-8" x="380.8" y="51.02" width="12.53" height="7.45"/><rect class="cls-9" x="380.8" y="62.06" width="12.53" height="7.45"/><rect class="cls-9" x="380.8" y="73.02" width="12.53" height="7.45"/><rect class="cls-3" x="380.8" y="84.48" width="12.53" height="7.45"/><rect class="cls-3" x="380.8" y="95.44" width="12.53" height="7.45"/><rect class="cls-3" x="380.8" y="106.48" width="12.53" height="7.45"/><rect class="cls-3" x="380.8" y="117.44" width="12.53" height="7.45"/><rect class="cls-3" x="380.8" y="128.51" width="12.53" height="7.45"/><rect class="cls-4" x="380.8" y="139.47" width="12.53" height="7.45"/><rect class="cls-4" x="380.8" y="150.51" width="12.53" height="7.45"/><rect class="cls-4" x="380.8" y="161.47" width="12.53" height="7.45"/><rect class="cls-5" x="380.8" y="172.69" width="12.53" height="7.45"/><rect class="cls-7" x="358.62" y="17.76" width="12.53" height="7.45"/><rect class="cls-8" x="358.62" y="39.79" width="12.53" height="7.45"/><rect class="cls-8" x="358.62" y="50.75" width="12.53" height="7.45"/><rect class="cls-9" x="358.62" y="61.79" width="12.53" height="7.45"/><rect class="cls-9" x="358.62" y="72.75" width="12.53" height="7.45"/><rect class="cls-3" x="358.62" y="84.22" width="12.53" height="7.45"/><rect class="cls-3" x="358.62" y="95.17" width="12.53" height="7.45"/><rect class="cls-3" x="358.62" y="106.22" width="12.53" height="7.45"/><rect class="cls-3" x="358.62" y="117.17" width="12.53" height="7.45"/><rect class="cls-3" x="358.62" y="128.24" width="12.53" height="7.45"/><rect class="cls-4" x="358.62" y="139.2" width="12.53" height="7.45"/><rect class="cls-8" x="336.83" y="50.93" width="12.53" height="7.45"/><rect class="cls-9" x="336.83" y="61.97" width="12.53" height="7.45"/><rect class="cls-9" x="336.83" y="72.93" width="12.53" height="7.45"/><rect class="cls-3" x="336.83" y="84.4" width="12.53" height="7.45"/><rect class="cls-3" x="336.83" y="95.35" width="12.53" height="7.45"/><rect class="cls-3" x="336.83" y="106.4" width="12.53" height="7.45"/><rect class="cls-3" x="336.83" y="117.35" width="12.53" height="7.45"/><rect class="cls-3" x="336.83" y="128.42" width="12.53" height="7.45"/><rect class="cls-4" x="336.83" y="139.38" width="12.53" height="7.45"/><rect class="cls-7" x="314.65" y="7" width="12.53" height="7.45"/><rect class="cls-7" x="314.65" y="18.04" width="12.53" height="7.45"/><rect class="cls-7" x="136.65" y="7" width="12.53" height="7.45"/><rect class="cls-7" x="314.65" y="29" width="12.53" height="7.45"/><rect class="cls-8" x="314.65" y="40.07" width="12.53" height="7.45"/><rect class="cls-8" x="314.65" y="51.03" width="12.53" height="7.45"/><rect class="cls-9" x="314.65" y="62.07" width="12.53" height="7.45"/><rect class="cls-9" x="314.65" y="73.03" width="12.53" height="7.45"/><rect class="cls-3" x="314.65" y="84.5" width="12.53" height="7.45"/><rect class="cls-3" x="314.65" y="95.45" width="12.53" height="7.45"/><rect class="cls-3" x="314.65" y="106.5" width="12.53" height="7.45"/><rect class="cls-3" x="314.65" y="117.45" width="12.53" height="7.45"/><rect class="cls-8" x="292.16" y="40.32" width="12.53" height="7.45"/><rect class="cls-8" x="292.16" y="51.27" width="12.53" height="7.45"/><rect class="cls-9" x="292.16" y="62.32" width="12.53" height="7.45"/><rect class="cls-9" x="292.16" y="73.27" width="12.53" height="7.45"/><rect class="cls-3" x="292.16" y="84.74" width="12.53" height="7.45"/><rect class="cls-3" x="292.16" y="95.7" width="12.53" height="7.45"/><rect class="cls-3" x="292.16" y="106.74" width="12.53" height="7.45"/><rect class="cls-3" x="292.16" y="117.7" width="12.53" height="7.45"/><rect class="cls-9" x="269.23" y="62.26" width="12.53" height="7.45"/><rect class="cls-3" x="269.23" y="84.69" width="12.53" height="7.45"/><rect class="cls-3" x="269.23" y="95.64" width="12.53" height="7.45"/><rect class="cls-3" x="269.23" y="106.69" width="12.53" height="7.45"/><rect class="cls-3" x="269.23" y="117.64" width="12.53" height="7.45"/><rect class="cls-3" x="269.23" y="128.72" width="12.53" height="7.45"/><rect class="cls-4" x="269.23" y="139.67" width="12.53" height="7.45"/><rect class="cls-4" x="269.23" y="150.72" width="12.53" height="7.45"/><rect class="cls-4" x="269.23" y="161.67" width="12.53" height="7.45"/><rect class="cls-8" x="247.05" y="40.36" width="12.53" height="7.45"/><rect class="cls-8" x="247.05" y="51.32" width="12.53" height="7.45"/><rect class="cls-9" x="247.05" y="62.36" width="12.53" height="7.45"/><rect class="cls-9" x="247.05" y="73.32" width="12.53" height="7.45"/><rect class="cls-3" x="247.05" y="84.79" width="12.53" height="7.45"/><rect class="cls-3" x="247.05" y="95.74" width="12.53" height="7.45"/><rect class="cls-3" x="247.05" y="106.79" width="12.53" height="7.45"/><rect class="cls-3" x="247.05" y="117.74" width="12.53" height="7.45"/><rect class="cls-3" x="247.05" y="128.81" width="12.53" height="7.45"/><rect class="cls-4" x="247.05" y="139.77" width="12.53" height="7.45"/><rect class="cls-4" x="247.05" y="150.81" width="12.53" height="7.45"/><rect class="cls-4" x="247.05" y="161.77" width="12.53" height="7.45"/><rect class="cls-9" x="225.26" y="73.13" width="12.53" height="7.45"/><rect class="cls-3" x="225.26" y="95.56" width="12.53" height="7.45"/><rect class="cls-3" x="225.26" y="106.6" width="12.53" height="7.45"/><rect class="cls-3" x="225.26" y="117.56" width="12.53" height="7.45"/><rect class="cls-3" x="225.26" y="128.63" width="12.53" height="7.45"/><rect class="cls-4" x="225.26" y="139.58" width="12.53" height="7.45"/><rect class="cls-4" x="225.26" y="150.63" width="12.53" height="7.45"/><rect class="cls-4" x="225.26" y="161.59" width="12.53" height="7.45"/><rect class="cls-5" x="225.26" y="172.81" width="12.53" height="7.45"/><rect class="cls-5" x="225.26" y="183.76" width="12.53" height="7.45"/><rect class="cls-3" x="203.08" y="95.66" width="12.53" height="7.45"/><rect class="cls-3" x="203.08" y="117.66" width="12.53" height="7.45"/><rect class="cls-3" x="203.08" y="128.73" width="12.53" height="7.45"/><rect class="cls-4" x="203.08" y="161.68" width="12.53" height="7.45"/><rect class="cls-5" x="203.08" y="172.91" width="12.53" height="7.45"/><rect class="cls-3" x="180.71" y="128.72" width="12.53" height="7.45"/><rect class="cls-4" x="180.71" y="139.67" width="12.53" height="7.45"/><rect class="cls-4" x="180.71" y="161.67" width="12.53" height="7.45"/><rect class="cls-5" x="180.71" y="172.9" width="12.53" height="7.45"/><rect class="cls-5" x="180.71" y="194.9" width="12.53" height="7.45"/><rect class="cls-6" x="180.71" y="205.85" width="12.53" height="7.45"/><rect class="cls-7" x="158.54" y="28.93" width="12.53" height="7.45"/><rect class="cls-8" x="158.54" y="50.95" width="12.53" height="7.45"/><rect class="cls-3" x="158.54" y="128.45" width="12.53" height="7.45"/><rect class="cls-4" x="158.54" y="139.41" width="12.53" height="7.45"/><rect class="cls-4" x="158.54" y="161.41" width="12.53" height="7.45"/><rect class="cls-5" x="158.54" y="172.63" width="12.53" height="7.45"/><rect class="cls-5" x="158.54" y="194.63" width="12.53" height="7.45"/><rect class="cls-6" x="158.54" y="205.59" width="12.53" height="7.45"/><rect class="cls-6" x="158.54" y="216.66" width="12.53" height="7.45"/><rect class="cls-7" x="136.74" y="29.11" width="12.53" height="7.45"/><rect class="cls-8" x="136.74" y="40.18" width="12.53" height="7.45"/><rect class="cls-8" x="136.74" y="51.13" width="12.53" height="7.45"/><rect class="cls-3" x="136.74" y="128.63" width="12.53" height="7.45"/><rect class="cls-4" x="136.74" y="139.58" width="12.53" height="7.45"/><rect class="cls-4" x="136.74" y="161.59" width="12.53" height="7.45"/><rect class="cls-5" x="136.74" y="172.81" width="12.53" height="7.45"/><rect class="cls-5" x="136.74" y="194.81" width="12.53" height="7.45"/><rect class="cls-6" x="136.74" y="205.77" width="12.53" height="7.45"/><rect class="cls-6" x="136.74" y="216.84" width="12.53" height="7.45"/><rect class="cls-3" x="114.57" y="128.73" width="12.53" height="7.45"/><rect class="cls-4" x="114.57" y="139.68" width="12.53" height="7.45"/><rect class="cls-4" x="114.57" y="161.69" width="12.53" height="7.45"/><rect class="cls-5" x="114.57" y="172.91" width="12.53" height="7.45"/><rect class="cls-5" x="114.57" y="194.91" width="12.53" height="7.45"/><rect class="cls-6" x="114.57" y="205.87" width="12.53" height="7.45"/><rect class="cls-8" x="91.47" y="40.18" width="12.53" height="7.45"/><rect class="cls-9" x="91.47" y="73.13" width="12.53" height="7.45"/><rect class="cls-3" x="91.47" y="84.6" width="12.53" height="7.45"/><rect class="cls-7" x="114.47" y="18.15" width="12.53" height="7.45"/><rect class="cls-8" x="114.47" y="40.18" width="12.53" height="7.45"/><rect class="cls-9" x="114.47" y="62.18" width="12.53" height="7.45"/><rect class="cls-3" x="91.47" y="95.56" width="12.53" height="7.45"/><rect class="cls-3" x="91.47" y="106.6" width="12.53" height="7.45"/><rect class="cls-3" x="91.47" y="117.56" width="12.53" height="7.45"/><rect class="cls-3" x="91.47" y="128.63" width="12.53" height="7.45"/><rect class="cls-4" x="91.47" y="139.58" width="12.53" height="7.45"/><rect class="cls-4" x="91.47" y="161.59" width="12.53" height="7.45"/><rect class="cls-5" x="91.47" y="172.81" width="12.53" height="7.45"/><rect class="cls-9" x="69.29" y="73.23" width="12.53" height="7.45"/><rect class="cls-3" x="69.29" y="95.66" width="12.53" height="7.45"/><rect class="cls-3" x="69.29" y="106.7" width="12.53" height="7.45"/><rect class="cls-3" x="69.29" y="117.66" width="12.53" height="7.45"/><rect class="cls-3" x="136.74" y="95.56" width="12.53" height="7.45"/><rect class="cls-3" x="136.74" y="106.6" width="12.53" height="7.45"/><rect class="cls-3" x="136.74" y="117.56" width="12.53" height="7.45"/><rect class="cls-3" x="114.57" y="106.7" width="12.53" height="7.45"/><rect class="cls-3" x="114.57" y="117.66" width="12.53" height="7.45"/><rect class="cls-3" x="180.71" y="95.56" width="12.53" height="7.45"/><rect class="cls-3" x="180.71" y="106.6" width="12.53" height="7.45"/><rect class="cls-3" x="180.71" y="117.56" width="12.53" height="7.45"/><rect class="cls-3" x="158.53" y="95.66" width="12.53" height="7.45"/><rect class="cls-3" x="158.53" y="106.7" width="12.53" height="7.45"/><rect class="cls-3" x="158.53" y="117.66" width="12.53" height="7.45"/><rect class="cls-3" x="69.29" y="128.73" width="12.53" height="7.45"/><rect class="cls-4" x="69.29" y="139.68" width="12.53" height="7.45"/><rect class="cls-4" x="69.29" y="161.69" width="12.53" height="7.45"/><rect class="cls-5" x="69.29" y="172.91" width="12.53" height="7.45"/><rect class="cls-3" x="669.29" y="128.73" width="12.53" height="7.45"/><rect class="cls-4" x="669.29" y="139.68" width="12.53" height="7.45"/><rect class="cls-4" x="669.29" y="150.73" width="12.53" height="7.45"/><rect class="cls-4" x="669.29" y="161.69" width="12.53" height="7.45"/><rect class="cls-5" x="669.29" y="172.91" width="12.53" height="7.45"/><rect class="cls-5" x="669.29" y="183.87" width="12.53" height="7.45"/><rect class="cls-5" x="669.29" y="194.91" width="12.53" height="7.45"/><rect class="cls-9" x="737.91" y="72.63" width="12.53" height="7.45"/><rect class="cls-3" x="737.91" y="95.48" width="12.53" height="7.45"/><rect class="cls-3" x="737.91" y="106.53" width="12.53" height="7.45"/><rect class="cls-3" x="737.91" y="117.48" width="12.53" height="7.45"/><rect class="cls-4" x="737.91" y="150.55" width="12.53" height="7.45"/><rect class="cls-4" x="737.91" y="161.51" width="12.53" height="7.45"/><rect class="cls-9" x="715.74" y="61.83" width="12.53" height="7.45"/><rect class="cls-9" x="715.74" y="72.79" width="12.53" height="7.45"/><rect class="cls-3" x="715.74" y="84.26" width="12.53" height="7.45"/><rect class="cls-3" x="715.74" y="95.21" width="12.53" height="7.45"/><rect class="cls-3" x="715.74" y="106.26" width="12.53" height="7.45"/><rect class="cls-3" x="715.74" y="128.28" width="12.53" height="7.45"/><rect class="cls-4" x="715.74" y="150.28" width="12.53" height="7.45"/><rect class="cls-4" x="715.74" y="161.24" width="12.53" height="7.45"/><rect class="cls-5" x="715.74" y="172.46" width="12.53" height="7.45"/><rect class="cls-7" x="693.94" y="28.94" width="12.53" height="7.45"/><rect class="cls-8" x="693.94" y="40.01" width="12.53" height="7.45"/><rect class="cls-9" x="693.94" y="62.01" width="12.53" height="7.45"/><rect class="cls-3" x="693.94" y="95.39" width="12.53" height="7.45"/><rect class="cls-3" x="693.94" y="106.44" width="12.53" height="7.45"/><rect class="cls-3" x="693.94" y="117.4" width="12.53" height="7.45"/><rect class="cls-3" x="693.94" y="128.46" width="12.53" height="7.45"/><rect class="cls-4" x="693.94" y="139.42" width="12.53" height="7.45"/><rect class="cls-4" x="693.94" y="150.47" width="12.53" height="7.45"/><rect class="cls-4" x="693.94" y="161.42" width="12.53" height="7.45"/><rect class="cls-5" x="693.94" y="172.65" width="12.53" height="7.45"/><rect class="cls-4" x="781.74" y="161.24" width="12.53" height="7.45"/><rect class="cls-4" x="759.94" y="161.42" width="12.53" height="7.45"/><rect class="cls-5" x="759.94" y="172.65" width="12.53" height="7.45"/><rect class="cls-9" x="803.74" y="72.79" width="12.53" height="7.45"/><rect class="cls-3" x="803.74" y="95.21" width="12.53" height="7.45"/><rect class="cls-3" x="781.94" y="95.39" width="12.53" height="7.45"/><rect class="cls-3" x="781.94" y="117.4" width="12.53" height="7.45"/><rect class="cls-3" x="781.94" y="128.46" width="12.53" height="7.45"/><rect class="cls-4" x="781.94" y="139.42" width="12.53" height="7.45"/><rect class="cls-4" x="781.94" y="150.47" width="12.53" height="7.45"/><rect class="cls-9" x="760.29" y="62.28" width="12.53" height="7.45"/><rect class="cls-9" x="760.29" y="73.23" width="12.53" height="7.45"/><rect class="cls-3" x="760.29" y="95.66" width="12.53" height="7.45"/><rect class="cls-3" x="760.29" y="117.66" width="12.53" height="7.45"/><rect class="cls-3" x="760.29" y="128.73" width="12.53" height="7.45"/><rect class="cls-4" x="760.29" y="150.73" width="12.53" height="7.45"/><path class="cls-10" d="M645.81,238.28a6.34,6.34,0,1,1,1.86,4.49A6.34,6.34,0,0,1,645.81,238.28Z"/><path class="cls-10" d="M564.51,175.47a6.34,6.34,0,1,1,1.86,4.49A6.35,6.35,0,0,1,564.51,175.47Z"/><path class="cls-10" d="M481.29,266.17a6.35,6.35,0,1,1,1.86,4.49A6.35,6.35,0,0,1,481.29,266.17Z"/><path class="cls-10" d="M434,216.13a6.35,6.35,0,1,1,1.86,4.49A6.34,6.34,0,0,1,434,216.13Z"/><path class="cls-10" d="M395.31,224.59a6.34,6.34,0,1,1-1.86,4.49A6.35,6.35,0,0,1,395.31,224.59Z"/><path class="cls-11" d="M361.36,165.56a9.63,9.63,0,1,1,2.82,6.81A9.63,9.63,0,0,1,361.36,165.56Z"/><path class="cls-11" d="M303.71,144.78a9.88,9.88,0,1,1,7,2.89A9.88,9.88,0,0,1,303.71,144.78Z"/><path class="cls-11" d="M288.36,182.71a9.85,9.85,0,1,1,2.89,7A9.85,9.85,0,0,1,288.36,182.71Z"/><path class="cls-11" d="M255.39,182.71a10,10,0,1,1,2.93,7.07A10,10,0,0,1,255.39,182.71Z"/><path class="cls-10" d="M113.27,238.28a6.34,6.34,0,1,1,1.86,4.49A6.34,6.34,0,0,1,113.27,238.28Z"/><rect class="cls-12" x="201.78" y="159.48" width="17.59" height="22.36"/><rect class="cls-12" x="22.5" y="159.48" width="10.53" height="22.36"/><rect class="cls-13" x="40.09" y="152.02" width="165.42" height="37.27"/><rect class="cls-14" x="198.06" y="148.29" width="7.45" height="44.72"/><rect class="cls-14" x="32.64" y="148.29" width="7.45" height="44.72"/><path class="cls-6" d="M418,170.66A100.63,100.63,0,1,0,317.32,271.29,100.63,100.63,0,0,0,418,170.66Zm-182.39,0a81.76,81.76,0,1,1,81.76,81.76A81.76,81.76,0,0,1,235.56,170.66Z"/><rect class="cls-15" x="693.7" y="194.33" width="100.44" height="66.67"/><rect class="cls-16" x="693.85" y="190" width="99.89" height="4.88"/><circle class="cls-17" cx="785.95" cy="192.44" r="0.87"/><circle class="cls-17" cx="788.62" cy="192.44" r="0.87"/><circle class="cls-17" cx="791.22" cy="192.44" r="0.87"/><path class="cls-18" d="M782.22,208.78h-.77c-.1,0-.1,0-.1-.1s0-.1.1-.1h.77c.1,0,.1,0,0,.19Zm-1.54,0h-.77c-.1,0-.1,0-.1-.1s0-.1.1-.1h.77c.1,0,.1,0,0,.19Zm-1.45,0h-.77c-.1,0-.1,0-.1-.1s0-.1.1-.1h.77c.1,0,.1,0,0,.19Zm-1.64,0h-.77c-.1,0-.1,0-.1-.1s0-.1.1-.1h.77c.1,0,.1,0,0,.19Zm-1.54,0h-.77c-.1,0-.1,0-.1-.1s0-.1.1-.1H776c.1,0,.1,0,0,.19Zm-1.54,0h-.77c-.1,0-.1,0-.1-.1s0-.1.1-.1h.77c.1,0,.1,0,0,.19Zm-1.54,0h-.77c-.1,0-.1,0-.1-.1s0-.1.1-.1H773c.1,0,.1,0,0,.19Zm-1.64,0h-.77c-.1,0-.1,0-.1-.1s0-.1.1-.1h.77c.1,0,.1,0,0,.19Zm-1.54,0H769c-.1,0-.1,0-.1-.1s0-.1.1-.1h.77c.1,0,.1,0,0,.19Zm-1.54,0h-.77c-.1,0-.1,0-.1-.1s0-.1.1-.1h.77c.1,0,.1,0,0,.19Zm-1.64,0h-.77c-.1,0-.1,0-.1-.1s0-.1.1-.1h.77c.1,0,.1,0,0,.19Zm-1.54,0h-.77c-.1,0-.1,0-.1-.1s0-.1.1-.1H765c.1,0,.1,0,0,.19Zm-1.54,0h-.77c-.1,0-.1,0-.1-.1s0-.1.1-.1h.77c.1,0,.1,0,0,.19Zm-1.54,0h-.77c-.1,0-.1,0-.1-.1s0-.1.1-.1H762c.1,0,.1,0,0,.19Zm-1.64,0h-.77c-.1,0-.1,0-.1-.1s0-.1.1-.1h.77c.1,0,.1,0,0,.19Zm-1.54,0H758c-.1,0-.1,0-.1-.1s0-.1.1-.1h.77c.1,0,.1,0,0,.19Zm-1.54,0h-.77c-.1,0-.1,0-.1-.1s0-.1.1-.1h.77c.1,0,.1,0,0,.19Zm-1.54,0h-.77c-.1,0-.1,0-.1-.1s0-.1.1-.1h.77c.1,0,.1,0,0,.19Zm-1.64,0h-.77c-.1,0-.1,0-.1-.1s0-.1.1-.1H754c.1,0,.1,0,0,.19Zm-1.54,0h-.77c-.1,0-.1,0-.1-.1s0-.1.1-.1h.77c.1,0,.1,0,0,.19Zm-1.45,0h-.77c-.1,0-.1,0-.1-.1s0-.1.1-.1h.77c.1,0,.1,0,0,.19Zm-1.64,0h-.77c-.1,0-.1,0-.1-.1s0-.1.1-.1h.77c.1,0,.1,0,0,.19Zm-1.54,0h-.77c-.1,0-.1,0-.1-.1s0-.1.1-.1h.77c.1,0,.1,0,0,.19Zm-1.54,0h-.77c-.1,0-.1,0-.1-.1s0-.1.1-.1h.77c.1,0,.1,0,0,.19Zm-1.54,0H744c-.1,0-.1,0-.1-.1s0-.1.1-.1h.77c.1,0,.1,0,0,.19Zm-1.64,0h-.77c-.1,0-.1,0-.1-.1s0-.1.1-.1h.77c.1,0,.1,0,0,.19Zm-1.54,0h-.77c-.1,0-.1,0-.1-.1s0-.1.1-.1h.77c.1,0,.1,0,0,.19Zm-1.54,0h-.77c-.1,0-.1,0-.1-.1s0-.1.1-.1h.77c.1,0,.1,0,0,.19Zm-1.64,0h-.77c-.1,0-.1,0-.1-.1s0-.1.1-.1h.77c.1,0,.1,0,0,.19Zm-1.54,0h-.77c-.1,0-.1,0-.1-.1s0-.1.1-.1h.77c.1,0,.1,0,0,.19Zm-1.54,0h-.77c-.1,0-.1,0-.1-.1s0-.1.1-.1h.77c.1,0,.1,0,0,.19Zm-1.54,0H733c-.1,0-.1,0-.1-.1s0-.1.1-.1h.77c.1,0,.1,0,0,.19Zm-1.64,0h-.77c-.1,0-.1,0-.1-.1s0-.1.1-.1h.77c.1,0,.1,0,0,.19Zm-1.54,0h-.77c-.1,0-.1,0-.1-.1s0-.1.1-.1h.77c.1,0,.1,0,0,.19Zm-1.54,0h-.77c-.1,0-.1,0-.1-.1s0-.1.1-.1h.77c.1,0,.1,0,0,.19Zm-1.54,0h-.77c-.1,0-.1,0-.1-.1s0-.1.1-.1h.77c.1,0,.1,0,0,.19Zm-1.64,0h-.77c-.1,0-.1,0-.1-.1s0-.1.1-.1h.77c.1,0,.1,0,0,.19Zm-1.54,0h-.77c-.1,0-.1,0-.1-.1s0-.1.1-.1h.77c.1,0,.1,0,0,.19Zm-1.45,0h-.77c-.1,0-.1,0-.1-.1s0-.1.1-.1h.77c.1,0,.1,0,0,.19Zm-1.64,0h-.77c-.1,0-.1,0-.1-.1s0-.1.1-.1h.77c.1,0,.1,0,0,.19Zm-1.54,0h-.77c-.1,0-.1,0-.1-.1s0-.1.1-.1h.77c.1,0,.1,0,0,.19Zm-1.54,0h-.77c-.1,0-.1,0-.1-.1s0-.1.1-.1h.77c.1,0,.1,0,0,.19Zm-1.54,0h-.77c-.1,0-.1,0-.1-.1s0-.1.1-.1h.77c.1,0,.1,0,0,.19Zm-1.64,0h-.77c-.1,0-.1,0-.1-.1s0-.1.1-.1H715c.1,0,.1,0,0,.19Zm-1.54,0h-.77c-.1,0-.1,0-.1-.1s0-.1.1-.1h.77c.1,0,.1,0,0,.19Zm-1.54,0h-.77c-.1,0-.1,0-.1-.1s0-.1.1-.1h.77c.1,0,.1,0,0,.19Zm-1.54,0h-.77c-.1,0-.1,0-.1-.1s0-.1.1-.1h.77c.1,0,.1,0,0,.19Zm-1.64,0h-.77c-.1,0-.1,0-.1-.1s0-.1.1-.1h.77c.1,0,.1,0,0,.19Zm-1.54,0h-.77c-.1,0-.1,0-.1-.1s0-.1.1-.1h.77c.1,0,.1,0,0,.19Zm-1.54,0h-.77c-.1,0-.1,0-.1-.1s0-.1.1-.1h.77c.1,0,.1,0,0,.19Z"/><path class="cls-18" d="M782.22,216.88h-.77c-.1,0-.1,0-.1-.1s0-.1.1-.1h.77c.1,0,.1,0,0,.19Zm-1.54,0h-.77c-.1,0-.1,0-.1-.1s0-.1.1-.1h.77c.1,0,.1,0,0,.19Zm-1.45,0h-.77c-.1,0-.1,0-.1-.1s0-.1.1-.1h.77c.1,0,.1,0,0,.19Zm-1.64,0h-.77c-.1,0-.1,0-.1-.1s0-.1.1-.1h.77c.1,0,.1,0,0,.19Zm-1.54,0h-.77c-.1,0-.1,0-.1-.1s0-.1.1-.1H776c.1,0,.1,0,0,.19Zm-1.54,0h-.77c-.1,0-.1,0-.1-.1s0-.1.1-.1h.77c.1,0,.1,0,0,.19Zm-1.54,0h-.77c-.1,0-.1,0-.1-.1s0-.1.1-.1H773c.1,0,.1,0,0,.19Zm-1.64,0h-.77c-.1,0-.1,0-.1-.1s0-.1.1-.1h.77c.1,0,.1,0,0,.19Zm-1.54,0H769c-.1,0-.1,0-.1-.1s0-.1.1-.1h.77c.1,0,.1,0,0,.19Zm-1.54,0h-.77c-.1,0-.1,0-.1-.1s0-.1.1-.1h.77c.1,0,.1,0,0,.19Zm-1.64,0h-.77c-.1,0-.1,0-.1-.1s0-.1.1-.1h.77c.1,0,.1,0,0,.19Zm-1.54,0h-.77c-.1,0-.1,0-.1-.1s0-.1.1-.1H765c.1,0,.1,0,0,.19Zm-1.54,0h-.77c-.1,0-.1,0-.1-.1s0-.1.1-.1h.77c.1,0,.1,0,0,.19Zm-1.54,0h-.77c-.1,0-.1,0-.1-.1s0-.1.1-.1H762c.1,0,.1,0,0,.19Zm-1.64,0h-.77c-.1,0-.1,0-.1-.1s0-.1.1-.1h.77c.1,0,.1,0,0,.19Zm-1.54,0H758c-.1,0-.1,0-.1-.1s0-.1.1-.1h.77c.1,0,.1,0,0,.19Zm-1.54,0h-.77c-.1,0-.1,0-.1-.1s0-.1.1-.1h.77c.1,0,.1,0,0,.19Zm-1.54,0h-.77c-.1,0-.1,0-.1-.1s0-.1.1-.1h.77c.1,0,.1,0,0,.19Zm-1.64,0h-.77c-.1,0-.1,0-.1-.1s0-.1.1-.1H754c.1,0,.1,0,0,.19Zm-1.54,0h-.77c-.1,0-.1,0-.1-.1s0-.1.1-.1h.77c.1,0,.1,0,0,.19Zm-1.45,0h-.77c-.1,0-.1,0-.1-.1s0-.1.1-.1h.77c.1,0,.1,0,0,.19Zm-1.64,0h-.77c-.1,0-.1,0-.1-.1s0-.1.1-.1h.77c.1,0,.1,0,0,.19Zm-1.54,0h-.77c-.1,0-.1,0-.1-.1s0-.1.1-.1h.77c.1,0,.1,0,0,.19Zm-1.54,0h-.77c-.1,0-.1,0-.1-.1s0-.1.1-.1h.77c.1,0,.1,0,0,.19Zm-1.54,0H744c-.1,0-.1,0-.1-.1s0-.1.1-.1h.77c.1,0,.1,0,0,.19Zm-1.64,0h-.77c-.1,0-.1,0-.1-.1s0-.1.1-.1h.77c.1,0,.1,0,0,.19Zm-1.54,0h-.77c-.1,0-.1,0-.1-.1s0-.1.1-.1h.77c.1,0,.1,0,0,.19Zm-1.54,0h-.77c-.1,0-.1,0-.1-.1s0-.1.1-.1h.77c.1,0,.1,0,0,.19Zm-1.64,0h-.77c-.1,0-.1,0-.1-.1s0-.1.1-.1h.77c.1,0,.1,0,0,.19Zm-1.54,0h-.77c-.1,0-.1,0-.1-.1s0-.1.1-.1h.77c.1,0,.1,0,0,.19Zm-1.54,0h-.77c-.1,0-.1,0-.1-.1s0-.1.1-.1h.77c.1,0,.1,0,0,.19Zm-1.54,0H733c-.1,0-.1,0-.1-.1s0-.1.1-.1h.77c.1,0,.1,0,0,.19Zm-1.64,0h-.77c-.1,0-.1,0-.1-.1s0-.1.1-.1h.77c.1,0,.1,0,0,.19Zm-1.54,0h-.77c-.1,0-.1,0-.1-.1s0-.1.1-.1h.77c.1,0,.1,0,0,.19Zm-1.54,0h-.77c-.1,0-.1,0-.1-.1s0-.1.1-.1h.77c.1,0,.1,0,0,.19Zm-1.54,0h-.77c-.1,0-.1,0-.1-.1s0-.1.1-.1h.77c.1,0,.1,0,0,.19Zm-1.64,0h-.77c-.1,0-.1,0-.1-.1s0-.1.1-.1h.77c.1,0,.1,0,0,.19Zm-1.54,0h-.77c-.1,0-.1,0-.1-.1s0-.1.1-.1h.77c.1,0,.1,0,0,.19Zm-1.45,0h-.77c-.1,0-.1,0-.1-.1s0-.1.1-.1h.77c.1,0,.1,0,0,.19Zm-1.64,0h-.77c-.1,0-.1,0-.1-.1s0-.1.1-.1h.77c.1,0,.1,0,0,.19Zm-1.54,0h-.77c-.1,0-.1,0-.1-.1s0-.1.1-.1h.77c.1,0,.1,0,0,.19Zm-1.54,0h-.77c-.1,0-.1,0-.1-.1s0-.1.1-.1h.77c.1,0,.1,0,0,.19Zm-1.54,0h-.77c-.1,0-.1,0-.1-.1s0-.1.1-.1h.77c.1,0,.1,0,0,.19Zm-1.64,0h-.77c-.1,0-.1,0-.1-.1s0-.1.1-.1H715c.1,0,.1,0,0,.19Zm-1.54,0h-.77c-.1,0-.1,0-.1-.1s0-.1.1-.1h.77c.1,0,.1,0,0,.19Zm-1.54,0h-.77c-.1,0-.1,0-.1-.1s0-.1.1-.1h.77c.1,0,.1,0,0,.19Zm-1.54,0h-.77c-.1,0-.1,0-.1-.1s0-.1.1-.1h.77c.1,0,.1,0,0,.19Zm-1.64,0h-.77c-.1,0-.1,0-.1-.1s0-.1.1-.1h.77c.1,0,.1,0,0,.19Zm-1.54,0h-.77c-.1,0-.1,0-.1-.1s0-.1.1-.1h.77c.1,0,.1,0,0,.19Zm-1.54,0h-.77c-.1,0-.1,0-.1-.1s0-.1.1-.1h.77c.1,0,.1,0,0,.19Z"/><path class="cls-18" d="M782.22,225.18h-.77c-.1,0-.1,0-.1-.1s0-.1.1-.1h.77c.1,0,.1,0,0,.19Zm-1.54,0h-.77c-.1,0-.1,0-.1-.1s0-.1.1-.1h.77c.1,0,.1,0,0,.19Zm-1.45,0h-.77c-.1,0-.1,0-.1-.1s0-.1.1-.1h.77c.1,0,.1,0,0,.19Zm-1.64,0h-.77c-.1,0-.1,0-.1-.1s0-.1.1-.1h.77c.1,0,.1,0,0,.19Zm-1.54,0h-.77c-.1,0-.1,0-.1-.1s0-.1.1-.1H776c.1,0,.1,0,0,.19Zm-1.54,0h-.77c-.1,0-.1,0-.1-.1s0-.1.1-.1h.77c.1,0,.1,0,0,.19Zm-1.54,0h-.77c-.1,0-.1,0-.1-.1s0-.1.1-.1H773c.1,0,.1,0,0,.19Zm-1.64,0h-.77c-.1,0-.1,0-.1-.1s0-.1.1-.1h.77c.1,0,.1,0,0,.19Zm-1.54,0H769c-.1,0-.1,0-.1-.1s0-.1.1-.1h.77c.1,0,.1,0,0,.19Zm-1.54,0h-.77c-.1,0-.1,0-.1-.1s0-.1.1-.1h.77c.1,0,.1,0,0,.19Zm-1.64,0h-.77c-.1,0-.1,0-.1-.1s0-.1.1-.1h.77c.1,0,.1,0,0,.19Zm-1.54,0h-.77c-.1,0-.1,0-.1-.1s0-.1.1-.1H765c.1,0,.1,0,0,.19Zm-1.54,0h-.77c-.1,0-.1,0-.1-.1s0-.1.1-.1h.77c.1,0,.1,0,0,.19Zm-1.54,0h-.77c-.1,0-.1,0-.1-.1s0-.1.1-.1H762c.1,0,.1,0,0,.19Zm-1.64,0h-.77c-.1,0-.1,0-.1-.1s0-.1.1-.1h.77c.1,0,.1,0,0,.19Zm-1.54,0H758c-.1,0-.1,0-.1-.1s0-.1.1-.1h.77c.1,0,.1,0,0,.19Zm-1.54,0h-.77c-.1,0-.1,0-.1-.1s0-.1.1-.1h.77c.1,0,.1,0,0,.19Zm-1.54,0h-.77c-.1,0-.1,0-.1-.1s0-.1.1-.1h.77c.1,0,.1,0,0,.19Zm-1.64,0h-.77c-.1,0-.1,0-.1-.1s0-.1.1-.1H754c.1,0,.1,0,0,.19Zm-1.54,0h-.77c-.1,0-.1,0-.1-.1s0-.1.1-.1h.77c.1,0,.1,0,0,.19Zm-1.45,0h-.77c-.1,0-.1,0-.1-.1s0-.1.1-.1h.77c.1,0,.1,0,0,.19Zm-1.64,0h-.77c-.1,0-.1,0-.1-.1s0-.1.1-.1h.77c.1,0,.1,0,0,.19Zm-1.54,0h-.77c-.1,0-.1,0-.1-.1s0-.1.1-.1h.77c.1,0,.1,0,0,.19Zm-1.54,0h-.77c-.1,0-.1,0-.1-.1s0-.1.1-.1h.77c.1,0,.1,0,0,.19Zm-1.54,0H744c-.1,0-.1,0-.1-.1s0-.1.1-.1h.77c.1,0,.1,0,0,.19Zm-1.64,0h-.77c-.1,0-.1,0-.1-.1s0-.1.1-.1h.77c.1,0,.1,0,0,.19Zm-1.54,0h-.77c-.1,0-.1,0-.1-.1s0-.1.1-.1h.77c.1,0,.1,0,0,.19Zm-1.54,0h-.77c-.1,0-.1,0-.1-.1s0-.1.1-.1h.77c.1,0,.1,0,0,.19Zm-1.64,0h-.77c-.1,0-.1,0-.1-.1s0-.1.1-.1h.77c.1,0,.1,0,0,.19Zm-1.54,0h-.77c-.1,0-.1,0-.1-.1s0-.1.1-.1h.77c.1,0,.1,0,0,.19Zm-1.54,0h-.77c-.1,0-.1,0-.1-.1s0-.1.1-.1h.77c.1,0,.1,0,0,.19Zm-1.54,0H733c-.1,0-.1,0-.1-.1s0-.1.1-.1h.77c.1,0,.1,0,0,.19Zm-1.64,0h-.77c-.1,0-.1,0-.1-.1s0-.1.1-.1h.77c.1,0,.1,0,0,.19Zm-1.54,0h-.77c-.1,0-.1,0-.1-.1s0-.1.1-.1h.77c.1,0,.1,0,0,.19Zm-1.54,0h-.77c-.1,0-.1,0-.1-.1s0-.1.1-.1h.77c.1,0,.1,0,0,.19Zm-1.54,0h-.77c-.1,0-.1,0-.1-.1s0-.1.1-.1h.77c.1,0,.1,0,0,.19Zm-1.64,0h-.77c-.1,0-.1,0-.1-.1s0-.1.1-.1h.77c.1,0,.1,0,0,.19Zm-1.54,0h-.77c-.1,0-.1,0-.1-.1s0-.1.1-.1h.77c.1,0,.1,0,0,.19Zm-1.45,0h-.77c-.1,0-.1,0-.1-.1s0-.1.1-.1h.77c.1,0,.1,0,0,.19Zm-1.64,0h-.77c-.1,0-.1,0-.1-.1s0-.1.1-.1h.77c.1,0,.1,0,0,.19Zm-1.54,0h-.77c-.1,0-.1,0-.1-.1s0-.1.1-.1h.77c.1,0,.1,0,0,.19Zm-1.54,0h-.77c-.1,0-.1,0-.1-.1s0-.1.1-.1h.77c.1,0,.1,0,0,.19Zm-1.54,0h-.77c-.1,0-.1,0-.1-.1s0-.1.1-.1h.77c.1,0,.1,0,0,.19Zm-1.64,0h-.77c-.1,0-.1,0-.1-.1s0-.1.1-.1H715c.1,0,.1,0,0,.19Zm-1.54,0h-.77c-.1,0-.1,0-.1-.1s0-.1.1-.1h.77c.1,0,.1,0,0,.19Zm-1.54,0h-.77c-.1,0-.1,0-.1-.1s0-.1.1-.1h.77c.1,0,.1,0,0,.19Zm-1.54,0h-.77c-.1,0-.1,0-.1-.1s0-.1.1-.1h.77c.1,0,.1,0,0,.19Zm-1.64,0h-.77c-.1,0-.1,0-.1-.1s0-.1.1-.1h.77c.1,0,.1,0,0,.19Zm-1.54,0h-.77c-.1,0-.1,0-.1-.1s0-.1.1-.1h.77c.1,0,.1,0,0,.19Zm-1.54,0h-.77c-.1,0-.1,0-.1-.1s0-.1.1-.1h.77c.1,0,.1,0,0,.19Z"/><path class="cls-18" d="M782.22,233.47h-.77c-.1,0-.1,0-.1-.1s0-.1.1-.1h.77c.1,0,.1,0,0,.19Zm-1.54,0h-.77c-.1,0-.1,0-.1-.1s0-.1.1-.1h.77c.1,0,.1,0,0,.19Zm-1.45,0h-.77c-.1,0-.1,0-.1-.1s0-.1.1-.1h.77c.1,0,.1,0,0,.19Zm-1.64,0h-.77c-.1,0-.1,0-.1-.1s0-.1.1-.1h.77c.1,0,.1,0,0,.19Zm-1.54,0h-.77c-.1,0-.1,0-.1-.1s0-.1.1-.1H776c.1,0,.1,0,0,.19Zm-1.54,0h-.77c-.1,0-.1,0-.1-.1s0-.1.1-.1h.77c.1,0,.1,0,0,.19Zm-1.54,0h-.77c-.1,0-.1,0-.1-.1s0-.1.1-.1H773c.1,0,.1,0,0,.19Zm-1.64,0h-.77c-.1,0-.1,0-.1-.1s0-.1.1-.1h.77c.1,0,.1,0,0,.19Zm-1.54,0H769c-.1,0-.1,0-.1-.1s0-.1.1-.1h.77c.1,0,.1,0,0,.19Zm-1.54,0h-.77c-.1,0-.1,0-.1-.1s0-.1.1-.1h.77c.1,0,.1,0,0,.19Zm-1.64,0h-.77c-.1,0-.1,0-.1-.1s0-.1.1-.1h.77c.1,0,.1,0,0,.19Zm-1.54,0h-.77c-.1,0-.1,0-.1-.1s0-.1.1-.1H765c.1,0,.1,0,0,.19Zm-1.54,0h-.77c-.1,0-.1,0-.1-.1s0-.1.1-.1h.77c.1,0,.1,0,0,.19Zm-1.54,0h-.77c-.1,0-.1,0-.1-.1s0-.1.1-.1H762c.1,0,.1,0,0,.19Zm-1.64,0h-.77c-.1,0-.1,0-.1-.1s0-.1.1-.1h.77c.1,0,.1,0,0,.19Zm-1.54,0H758c-.1,0-.1,0-.1-.1s0-.1.1-.1h.77c.1,0,.1,0,0,.19Zm-1.54,0h-.77c-.1,0-.1,0-.1-.1s0-.1.1-.1h.77c.1,0,.1,0,0,.19Zm-1.54,0h-.77c-.1,0-.1,0-.1-.1s0-.1.1-.1h.77c.1,0,.1,0,0,.19Zm-1.64,0h-.77c-.1,0-.1,0-.1-.1s0-.1.1-.1H754c.1,0,.1,0,0,.19Zm-1.54,0h-.77c-.1,0-.1,0-.1-.1s0-.1.1-.1h.77c.1,0,.1,0,0,.19Zm-1.45,0h-.77c-.1,0-.1,0-.1-.1s0-.1.1-.1h.77c.1,0,.1,0,0,.19Zm-1.64,0h-.77c-.1,0-.1,0-.1-.1s0-.1.1-.1h.77c.1,0,.1,0,0,.19Zm-1.54,0h-.77c-.1,0-.1,0-.1-.1s0-.1.1-.1h.77c.1,0,.1,0,0,.19Zm-1.54,0h-.77c-.1,0-.1,0-.1-.1s0-.1.1-.1h.77c.1,0,.1,0,0,.19Zm-1.54,0H744c-.1,0-.1,0-.1-.1s0-.1.1-.1h.77c.1,0,.1,0,0,.19Zm-1.64,0h-.77c-.1,0-.1,0-.1-.1s0-.1.1-.1h.77c.1,0,.1,0,0,.19Zm-1.54,0h-.77c-.1,0-.1,0-.1-.1s0-.1.1-.1h.77c.1,0,.1,0,0,.19Zm-1.54,0h-.77c-.1,0-.1,0-.1-.1s0-.1.1-.1h.77c.1,0,.1,0,0,.19Zm-1.64,0h-.77c-.1,0-.1,0-.1-.1s0-.1.1-.1h.77c.1,0,.1,0,0,.19Zm-1.54,0h-.77c-.1,0-.1,0-.1-.1s0-.1.1-.1h.77c.1,0,.1,0,0,.19Zm-1.54,0h-.77c-.1,0-.1,0-.1-.1s0-.1.1-.1h.77c.1,0,.1,0,0,.19Zm-1.54,0H733c-.1,0-.1,0-.1-.1s0-.1.1-.1h.77c.1,0,.1,0,0,.19Zm-1.64,0h-.77c-.1,0-.1,0-.1-.1s0-.1.1-.1h.77c.1,0,.1,0,0,.19Zm-1.54,0h-.77c-.1,0-.1,0-.1-.1s0-.1.1-.1h.77c.1,0,.1,0,0,.19Zm-1.54,0h-.77c-.1,0-.1,0-.1-.1s0-.1.1-.1h.77c.1,0,.1,0,0,.19Zm-1.54,0h-.77c-.1,0-.1,0-.1-.1s0-.1.1-.1h.77c.1,0,.1,0,0,.19Zm-1.64,0h-.77c-.1,0-.1,0-.1-.1s0-.1.1-.1h.77c.1,0,.1,0,0,.19Zm-1.54,0h-.77c-.1,0-.1,0-.1-.1s0-.1.1-.1h.77c.1,0,.1,0,0,.19Zm-1.45,0h-.77c-.1,0-.1,0-.1-.1s0-.1.1-.1h.77c.1,0,.1,0,0,.19Zm-1.64,0h-.77c-.1,0-.1,0-.1-.1s0-.1.1-.1h.77c.1,0,.1,0,0,.19Zm-1.54,0h-.77c-.1,0-.1,0-.1-.1s0-.1.1-.1h.77c.1,0,.1,0,0,.19Zm-1.54,0h-.77c-.1,0-.1,0-.1-.1s0-.1.1-.1h.77c.1,0,.1,0,0,.19Zm-1.54,0h-.77c-.1,0-.1,0-.1-.1s0-.1.1-.1h.77c.1,0,.1,0,0,.19Zm-1.64,0h-.77c-.1,0-.1,0-.1-.1s0-.1.1-.1H715c.1,0,.1,0,0,.19Zm-1.54,0h-.77c-.1,0-.1,0-.1-.1s0-.1.1-.1h.77c.1,0,.1,0,0,.19Zm-1.54,0h-.77c-.1,0-.1,0-.1-.1s0-.1.1-.1h.77c.1,0,.1,0,0,.19Zm-1.54,0h-.77c-.1,0-.1,0-.1-.1s0-.1.1-.1h.77c.1,0,.1,0,0,.19Zm-1.64,0h-.77c-.1,0-.1,0-.1-.1s0-.1.1-.1h.77c.1,0,.1,0,0,.19Zm-1.54,0h-.77c-.1,0-.1,0-.1-.1s0-.1.1-.1h.77c.1,0,.1,0,0,.19Zm-1.54,0h-.77c-.1,0-.1,0-.1-.1s0-.1.1-.1h.77c.1,0,.1,0,0,.19Z"/><rect class="cls-10" x="710.53" y="205.21" width="2.41" height="36.28"/><rect class="cls-19" x="707.06" y="230.87" width="2.41" height="10.71"/><rect class="cls-20" x="717.29" y="228.84" width="2.41" height="12.74"/><rect class="cls-21" x="713.81" y="215.43" width="2.41" height="26.15"/><rect class="cls-10" x="726.07" y="228.75" width="2.41" height="12.83"/><rect class="cls-19" x="723.17" y="203.85" width="2.41" height="37.72"/><rect class="cls-22" x="731.76" y="218.91" width="2.41" height="22.48"/><rect class="cls-21" x="728.77" y="221.51" width="2.41" height="19.97"/><rect class="cls-10" x="741.12" y="209.74" width="2.41" height="31.84"/><rect class="cls-19" x="738.22" y="218.81" width="2.41" height="22.58"/><rect class="cls-22" x="746.81" y="217.94" width="2.41" height="23.54"/><rect class="cls-21" x="743.91" y="224.89" width="2.41" height="16.59"/><rect class="cls-10" x="755.59" y="233.28" width="2.41" height="8.3"/><rect class="cls-19" x="752.69" y="227.11" width="2.41" height="14.38"/><rect class="cls-22" x="761.28" y="230.19" width="2.41" height="11.29"/><rect class="cls-21" x="758.39" y="221.32" width="2.41" height="20.16"/><rect class="cls-10" x="770.35" y="219.29" width="2.41" height="22.19"/><rect class="cls-19" x="767.36" y="223.05" width="2.41" height="18.43"/><rect class="cls-22" x="776.04" y="230.19" width="2.41" height="11.29"/><rect class="cls-21" x="773.05" y="206.75" width="2.41" height="34.83"/><path class="cls-23" d="M782.6,241.77H704.84a.19.19,0,1,1,0-.39H782.6a.21.21,0,0,1,.19.19C782.7,241.68,782.7,241.77,782.6,241.77Z"/><path class="cls-24" d="M738.61,250.55h-24.7a.39.39,0,1,1,0-.77h24.7a.39.39,0,1,1,0,.77Z"/><path class="cls-24" d="M738.61,253h-24.7a.39.39,0,1,1,0-.77h24.7a.42.42,0,0,1,.39.39A.35.35,0,0,1,738.61,253Z"/><path class="cls-24" d="M732.34,255.47H713.91a.39.39,0,1,1,0-.77h18.43a.42.42,0,0,1,.39.39C732.63,255.28,732.53,255.47,732.34,255.47Z"/><circle class="cls-20" cx="707.54" cy="252.77" r="3.28"/><path class="cls-17" d="M707.06,254.32a.35.35,0,0,1-.29-.1l-1-1a.41.41,0,1,1,.58-.58l1,1a.36.36,0,0,1,0,.58C707.25,254.22,707.15,254.32,707.06,254.32Z"/><path class="cls-17" d="M707.06,254.32a.35.35,0,0,1-.29-.1.36.36,0,0,1,0-.58l1.93-1.93a.41.41,0,0,1,.58.58l-1.93,1.93C707.25,254.22,707.15,254.32,707.06,254.32Z"/><path class="cls-24" d="M780.58,250.55h-24.7a.39.39,0,1,1,0-.77h24.7a.39.39,0,1,1,0,.77Z"/><path class="cls-24" d="M780.58,253h-24.7a.39.39,0,1,1,0-.77h24.7a.42.42,0,0,1,.39.39C780.87,252.87,780.77,253,780.58,253Z"/><path class="cls-24" d="M774.31,255.47H755.88a.39.39,0,1,1,0-.77h18.43a.39.39,0,1,1,0,.77Z"/><circle class="cls-10" cx="749.51" cy="252.77" r="3.28"/><path class="cls-17" d="M749,254.32a.35.35,0,0,1-.29-.1l-1-1a.41.41,0,1,1,.58-.58l1,1a.36.36,0,0,1,0,.58C749.22,254.22,749.12,254.32,749,254.32Z"/><path class="cls-17" d="M749,254.32a.35.35,0,0,1-.29-.1.36.36,0,0,1,0-.58l1.93-1.93a.41.41,0,0,1,.58.58l-1.93,1.93C749.22,254.22,749.12,254.32,749,254.32Z"/><rect class="cls-10" x="489.1" y="135.38" width="4.7" height="25.07"/><rect class="cls-21" x="495" y="130.45" width="4.7" height="30"/><rect class="cls-20" x="500.8" y="139.68" width="4.7" height="20.69"/><rect class="cls-10" x="469.2" y="138.09" width="4.7" height="22.28"/><rect class="cls-21" x="475.1" y="135.54" width="4.7" height="24.91"/><rect class="cls-20" x="480.8" y="139.04" width="4.7" height="21.33"/><rect class="cls-10" x="509" y="124" width="4.7" height="36.37"/><rect class="cls-21" x="514.9" y="128.93" width="4.7" height="31.51"/><rect class="cls-20" x="520.8" y="126.94" width="4.7" height="33.5"/><rect class="cls-25" x="602.56" y="62.29" width="83.94" height="55.72"/><path class="cls-26" d="M686.24,118.8h-84V62.49h84Zm-83.48-.53h83V63h-83Z"/><rect class="cls-27" x="602.49" y="59" width="83.48" height="4.08"/><rect class="cls-28" x="618.74" y="78.01" width="37.5" height="2.63"/><rect class="cls-22" x="618.74" y="75.38" width="31.12" height="2.63"/><rect class="cls-28" x="618.74" y="95.12" width="43.29" height="2.63"/><rect class="cls-29" x="618.74" y="92.49" width="21.12" height="2.63"/><rect class="cls-22" x="618.74" y="86.56" width="25.99" height="2.63"/><rect class="cls-20" x="618.74" y="83.93" width="50.06" height="2.63"/><path class="cls-30" d="M618.87,101a.14.14,0,0,1-.13-.13V72.35a.13.13,0,0,1,.26,0v28.49A.14.14,0,0,1,618.87,101Z"/><path class="cls-30" d="M670.78,101H618.87a.13.13,0,1,1,0-.26h51.91a.14.14,0,0,1,.13.13C670.91,101,670.84,101,670.78,101Z"/><path class="cls-30" d="M618.87,78.08h-1.25a.13.13,0,1,1,0-.26h1.25a.14.14,0,0,1,.13.13Z"/><path class="cls-30" d="M618.87,86.63h-1.25a.13.13,0,1,1,0-.26h1.25a.14.14,0,0,1,.13.13Z"/><path class="cls-30" d="M618.87,95.12h-1.25a.13.13,0,1,1,0-.26h1.25A.14.14,0,0,1,619,95Z"/><path class="cls-30" d="M628,101.56a.14.14,0,0,1-.13-.13v-.59a.13.13,0,0,1,.26,0v.59C628.15,101.56,628.08,101.56,628,101.56Z"/><path class="cls-30" d="M637.55,101.56a.14.14,0,0,1-.13-.13v-.59a.13.13,0,0,1,.26,0v.59C637.69,101.56,637.62,101.56,637.55,101.56Z"/><path class="cls-30" d="M645.91,101.56a.14.14,0,0,1-.13-.13v-.59a.13.13,0,0,1,.26,0v.59C646,101.56,646,101.56,645.91,101.56Z"/><path class="cls-30" d="M655.45,101.56a.14.14,0,0,1-.13-.13v-.59a.13.13,0,0,1,.26,0v.59C655.58,101.56,655.51,101.56,655.45,101.56Z"/><path class="cls-30" d="M663.8,101.56a.14.14,0,0,1-.13-.13v-.59a.13.13,0,0,1,.26,0v.59C663.94,101.56,663.87,101.56,663.8,101.56Z"/><circle class="cls-17" cx="679.46" cy="60.97" r="0.72"/><circle class="cls-17" cx="681.7" cy="60.97" r="0.72"/><circle class="cls-17" cx="683.87" cy="60.97" r="0.72"/><path class="cls-24" d="M641.63,106.3H624.79a.26.26,0,1,1,0-.53h16.84a.26.26,0,1,1,0,.53Z"/><path class="cls-24" d="M641.63,107.88H624.79a.26.26,0,1,1,0-.53h16.84a.26.26,0,1,1,0,.53Z"/><path class="cls-24" d="M637.36,109.52H624.79a.26.26,0,1,1,0-.53h12.57a.28.28,0,0,1,.26.26C637.55,109.46,637.49,109.52,637.36,109.52Z"/><circle class="cls-20" cx="620.45" cy="107.68" r="2.24"/><path class="cls-17" d="M620.12,108.73a.24.24,0,0,1-.2-.07l-.66-.66a.28.28,0,0,1,.39-.39l.66.66a.25.25,0,0,1,0,.39A.24.24,0,0,1,620.12,108.73Z"/><path class="cls-17" d="M620.12,108.73a.24.24,0,0,1-.2-.07.25.25,0,0,1,0-.39l1.32-1.32a.28.28,0,0,1,.39.39l-1.32,1.32A.24.24,0,0,1,620.12,108.73Z"/><path class="cls-24" d="M670.32,106.3H653.41a.26.26,0,1,1,0-.53h16.84a.28.28,0,0,1,.26.26C670.51,106.17,670.45,106.3,670.32,106.3Z"/><path class="cls-24" d="M670.32,107.88H653.41a.26.26,0,1,1,0-.53h16.84a.28.28,0,0,1,.26.26C670.51,107.75,670.45,107.88,670.32,107.88Z"/><path class="cls-24" d="M666,109.52H653.41a.26.26,0,1,1,0-.53H666a.28.28,0,0,1,.26.26A.24.24,0,0,1,666,109.52Z"/><circle class="cls-28" cx="649.07" cy="107.68" r="2.24"/><path class="cls-17" d="M648.74,108.73a.24.24,0,0,1-.2-.07l-.66-.66a.28.28,0,1,1,.39-.39l.66.66a.25.25,0,0,1,0,.39A.24.24,0,0,1,648.74,108.73Z"/><path class="cls-17" d="M648.74,108.73a.24.24,0,0,1-.2-.07.25.25,0,0,1,0-.39l1.32-1.32a.28.28,0,0,1,.39.39l-1.32,1.32A.24.24,0,0,1,648.74,108.73Z"/><rect class="cls-31" x="136.4" y="31.21" width="80.77" height="54.29"/><path class="cls-24" d="M173.92,73.9H157.64a.28.28,0,1,1,0-.56h16.28a.3.3,0,0,1,.28.28A.26.26,0,0,1,173.92,73.9Z"/><path class="cls-24" d="M173.92,75.51H157.64a.28.28,0,1,1,0-.56h16.28a.28.28,0,1,1,0,.56Z"/><path class="cls-24" d="M169.8,77H157.64a.28.28,0,1,1,0-.56h12.09a.3.3,0,0,1,.28.28C170,77,169.94,77,169.8,77Z"/><circle class="cls-24" cx="153.45" cy="75.3" r="2.17"/><path class="cls-17" d="M153.17,76.35a.26.26,0,0,1-.21-.07l-.63-.63a.3.3,0,1,1,.42-.42l.63.63a.26.26,0,0,1,0,.42A.26.26,0,0,1,153.17,76.35Z"/><path class="cls-17" d="M153.17,76.35a.26.26,0,0,1-.21-.07.26.26,0,0,1,0-.42l1.26-1.26a.3.3,0,1,1,.42.42l-1.26,1.26A.26.26,0,0,1,153.17,76.35Z"/><path class="cls-24" d="M201.59,73.9H185.31a.28.28,0,1,1,0-.56h16.28a.3.3,0,0,1,.28.28A.26.26,0,0,1,201.59,73.9Z"/><path class="cls-24" d="M201.59,75.51H185.31a.28.28,0,1,1,0-.56h16.28a.28.28,0,1,1,0,.56Z"/><path class="cls-24" d="M197.39,77H185.31a.28.28,0,1,1,0-.56h12.09a.3.3,0,0,1,.28.28A.26.26,0,0,1,197.39,77Z"/><circle class="cls-20" cx="181.11" cy="75.3" r="2.17"/><path class="cls-17" d="M180.77,76.35a.26.26,0,0,1-.21-.07l-.63-.63a.3.3,0,1,1,.42-.42l.63.63a.26.26,0,0,1,0,.42A.26.26,0,0,1,180.77,76.35Z"/><path class="cls-17" d="M180.77,76.35a.26.26,0,0,1-.21-.07.26.26,0,0,1,0-.42l1.26-1.26a.3.3,0,1,1,.42.42L181,76.28A.26.26,0,0,1,180.77,76.35Z"/><rect class="cls-32" x="136.68" y="28" width="80.56" height="3.98"/><circle class="cls-17" cx="211.02" cy="29.96" r="0.7"/><circle class="cls-17" cx="213.11" cy="29.96" r="0.7"/><circle class="cls-17" cx="215.28" cy="29.96" r="0.7"/><path class="cls-33" d="M202.7,46.86h-.42c-.07,0-.07,0-.07-.07s0-.07.07-.07h.42c.07,0,.07,0,0,.14Zm-1,0h-.56c-.07,0-.07,0-.07-.07s0-.07.07-.07h.56c.07,0,.07,0,0,.14C201.73,46.79,201.73,46.86,201.66,46.86Zm-1.12,0H200c-.07,0-.07,0-.07-.07s0-.07.07-.07h.56c.07,0,.07,0,0,.14C200.61,46.79,200.61,46.86,200.54,46.86Zm-1.12,0h-.56c-.07,0-.07,0-.07-.07s0-.07.07-.07h.56c.07,0,.07,0,0,.14Zm-1.12,0h-.56c-.07,0-.07,0-.07-.07s0-.07.07-.07h.56c.07,0,.07,0,0,.14Zm-1.19,0h-.56c-.07,0-.07,0-.07-.07s0-.07.07-.07h.56c.07,0,.07,0,0,.14C197.18,46.79,197.18,46.86,197.11,46.86Zm-1.12,0h-.56c-.07,0-.07,0-.07-.07s0-.07.07-.07H196c.07,0,.07,0,0,.14C196.07,46.79,196.07,46.86,196,46.86Zm-1.12,0h-.56c-.07,0-.07,0-.07-.07s0-.07.07-.07h.56c.07,0,.07,0,0,.14Zm-1.12,0h-.56c-.07,0-.07,0-.07-.07s0-.07.07-.07h.56c.07,0,.07,0,0,.14Zm-1.19,0H192c-.07,0-.07,0-.07-.07s0-.07.07-.07h.56c.07,0,.07,0,0,.14C192.64,46.79,192.64,46.86,192.57,46.86Zm-1.12,0h-.56c-.07,0-.07,0-.07-.07s0-.07.07-.07h.56c.07,0,.07,0,0,.14C191.52,46.79,191.52,46.86,191.45,46.86Zm-1.12,0h-.56c-.07,0-.07,0-.07-.07s0-.07.07-.07h.56c.07,0,.07,0,0,.14Zm-1.19,0h-.56c-.07,0-.07,0-.07-.07s0-.07.07-.07h.56c.07,0,.07,0,0,.14Zm-1,0h-.56c-.07,0-.07,0-.07-.07s0-.07.07-.07h.56c.07,0,.07,0,0,.14Zm-1.12,0h-.56c-.07,0-.07,0-.07-.07s0-.07.07-.07H187c.07,0,.07,0,0,.14Zm-1.12,0h-.56c-.07,0-.07,0-.07-.07s0-.07.07-.07h.56c.07,0,.07,0,0,.14Zm-1.19,0h-.56c-.07,0-.07,0-.07-.07s0-.07.07-.07h.56c.07,0,.07,0,0,.14Zm-1.12,0H183c-.07,0-.07,0-.07-.07s0-.07.07-.07h.56c.07,0,.07,0,0,.14Zm-1.12,0h-.56c-.07,0-.07,0-.07-.07s0-.07.07-.07h.56c.07,0,.07,0,0,.14Zm-1.12,0h-.56c-.07,0-.07,0-.07-.07s0-.07.07-.07h.56c.07,0,.07,0,0,.14Zm-1.19,0h-.56c-.07,0-.07,0-.07-.07s0-.07.07-.07h.56c.07,0,.07,0,0,.14Zm-1.12,0h-.56c-.07,0-.07,0-.07-.07s0-.07.07-.07H179c.07,0,.07,0,0,.14Zm-1.12,0h-.56c-.07,0-.07,0-.07-.07s0-.07.07-.07h.56c.07,0,.07,0,0,.14Zm-1.19,0h-.56c-.07,0-.07,0-.07-.07s0-.07.07-.07h.56c.07,0,.07,0,0,.14Zm-1.12,0H175c-.07,0-.07,0-.07-.07s0-.07.07-.07h.56c.07,0,.07,0,0,.14Zm-1.12,0h-.56c-.07,0-.07,0-.07-.07s0-.07.07-.07h.56c.07,0,.07,0,0,.14Zm-1.12,0h-.56c-.07,0-.07,0-.07-.07s0-.07.07-.07h.56c.07,0,.07,0,0,.14Zm-1.19,0h-.56c-.07,0-.07,0-.07-.07s0-.07.07-.07h.56c.07,0,.07,0,0,.14Zm-1.12,0h-.56c-.07,0-.07,0-.07-.07s0-.07.07-.07h.56c.07,0,.07,0,0,.14Zm-1.12,0h-.56c-.07,0-.07,0-.07-.07s0-.07.07-.07h.56c.07,0,.07,0,0,.14Zm-1.19,0h-.49c-.07,0-.07,0-.07-.07s0-.07.07-.07h.56l-.07.14Zm-1,0h-.56c-.07,0-.07,0-.07-.07s0-.07.07-.07h.56c.07,0,.07,0,0,.14Zm-1.12,0H166c-.07,0-.07,0-.07-.07s0-.07.07-.07h.56c.07,0,.07,0,0,.14Zm-1.12,0h-.56c-.07,0-.07,0-.07-.07s0-.07.07-.07h.56c.07,0,.07,0,0,.14Zm-1.19,0h-.56c-.07,0-.07,0-.07-.07s0-.07.07-.07h.56c.07,0,.07,0,0,.14Zm-1.12,0h-.56c-.07,0-.07,0-.07-.07s0-.07.07-.07h.56c.07,0,.07,0,0,.14Zm-1.12,0h-.56c-.07,0-.07,0-.07-.07s0-.07.07-.07H162c.07,0,.07,0,0,.14Zm-1.12,0h-.56c-.07,0-.07,0-.07-.07s0-.07.07-.07h.56c.07,0,.07,0,0,.14Zm-1.19,0h-.56c-.07,0-.07,0-.07-.07s0-.07.07-.07h.56c.07,0,.07,0,0,.14Zm-1.12,0h-.56c-.07,0-.07,0-.07-.07s0-.07.07-.07h.56c.07,0,.07,0,0,.14Zm-1.12,0h-.56c-.07,0-.07,0-.07-.07s0-.07.07-.07h.56c.07,0,.07,0,0,.14Zm-1.19,0h-.56c-.07,0-.07,0-.07-.07s0-.07.07-.07h.56c.07,0,.07,0,0,.14Zm-1.12,0h-.56c-.07,0-.07,0-.07-.07s0-.07.07-.07h.56c.07,0,.07,0,0,.14Zm-1.12,0h-.56c-.07,0-.07,0-.07-.07s0-.07.07-.07h.56c.07,0,.07,0,0,.14Zm-1.12,0h-.56c-.07,0-.07,0-.07-.07s0-.07.07-.07H153c.07,0,.07,0,0,.14Zm-1.19,0h-.56c-.07,0-.07,0-.07-.07s0-.07.07-.07h.56c.07,0,.07,0,0,.14Z"/><path class="cls-33" d="M202.7,50.92h-.42c-.07,0-.07,0-.07-.07s0-.07.07-.07h.42c.07,0,.07,0,0,.14Zm-1,0h-.56c-.07,0-.07,0-.07-.07s0-.07.07-.07h.56c.07,0,.07,0,0,.14Zm-1.12,0H200c-.07,0-.07,0-.07-.07s0-.07.07-.07h.56c.07,0,.07,0,0,.14Zm-1.12,0h-.56c-.07,0-.07,0-.07-.07s0-.07.07-.07h.56c.07,0,.07,0,0,.14Zm-1.12,0h-.56c-.07,0-.07,0-.07-.07s0-.07.07-.07h.56c.07,0,.07,0,0,.14Zm-1.19,0h-.56c-.07,0-.07,0-.07-.07s0-.07.07-.07h.56c.07,0,.07,0,0,.14Zm-1.12,0h-.56c-.07,0-.07,0-.07-.07s0-.07.07-.07H196c.07,0,.07,0,0,.14Zm-1.12,0h-.56c-.07,0-.07,0-.07-.07s0-.07.07-.07h.56c.07,0,.07,0,0,.14Zm-1.12,0h-.56c-.07,0-.07,0-.07-.07s0-.07.07-.07h.56c.07,0,.07,0,0,.14Zm-1.19,0H192c-.07,0-.07,0-.07-.07s0-.07.07-.07h.56c.07,0,.07,0,0,.14Zm-1.12,0h-.56c-.07,0-.07,0-.07-.07s0-.07.07-.07h.56c.07,0,.07,0,0,.14Zm-1.12,0h-.56c-.07,0-.07,0-.07-.07s0-.07.07-.07h.56c.07,0,.07,0,0,.14Zm-1.19,0h-.56c-.07,0-.07,0-.07-.07s0-.07.07-.07h.56c.07,0,.07,0,0,.14Zm-1,0h-.56c-.07,0-.07,0-.07-.07s0-.07.07-.07h.56c.07,0,.07,0,0,.14Zm-1.12,0h-.56c-.07,0-.07,0-.07-.07s0-.07.07-.07H187c.07,0,.07,0,0,.14Zm-1.12,0h-.56c-.07,0-.07,0-.07-.07s0-.07.07-.07h.56c.07,0,.07,0,0,.14Zm-1.19,0h-.56c-.07,0-.07,0-.07-.07s0-.07.07-.07h.56c.07,0,.07,0,0,.14Zm-1.12,0H183c-.07,0-.07,0-.07-.07s0-.07.07-.07h.56c.07,0,.07,0,0,.14Zm-1.12,0h-.56c-.07,0-.07,0-.07-.07s0-.07.07-.07h.56c.07,0,.07,0,0,.14Zm-1.12,0h-.56c-.07,0-.07,0-.07-.07s0-.07.07-.07h.56c.07,0,.07,0,0,.14Zm-1.19,0h-.56c-.07,0-.07,0-.07-.07s0-.07.07-.07h.56c.07,0,.07,0,0,.14Zm-1.12,0h-.56c-.07,0-.07,0-.07-.07s0-.07.07-.07H179c.07,0,.07,0,0,.14Zm-1.12,0h-.56c-.07,0-.07,0-.07-.07s0-.07.07-.07h.56c.07,0,.07,0,0,.14Zm-1.19,0h-.56c-.07,0-.07,0-.07-.07s0-.07.07-.07h.56c.07,0,.07,0,0,.14Zm-1.12,0H175c-.07,0-.07,0-.07-.07s0-.07.07-.07h.56c.07,0,.07,0,0,.14Zm-1.12,0h-.56c-.07,0-.07,0-.07-.07s0-.07.07-.07h.56c.07,0,.07,0,0,.14Zm-1.12,0h-.56c-.07,0-.07,0-.07-.07s0-.07.07-.07h.56c.07,0,.07,0,0,.14Zm-1.19,0h-.56c-.07,0-.07,0-.07-.07s0-.07.07-.07h.56c.07,0,.07,0,0,.14Zm-1.12,0h-.56c-.07,0-.07,0-.07-.07s0-.07.07-.07h.56c.07,0,.07,0,0,.14Zm-1.12,0h-.56c-.07,0-.07,0-.07-.07s0-.07.07-.07h.56c.07,0,.07,0,0,.14Zm-1.12,0h-.56c-.07,0-.07,0-.07-.07s0-.07.07-.07h.56c.07,0,.07,0,0,.14Zm-1.12,0h-.56c-.07,0-.07,0-.07-.07s0-.07.07-.07h.56c.07,0,.07,0,0,.14Zm-1.12.07H166c-.07,0-.07,0-.07-.07s0-.07.07-.07h.56c.07,0,.07,0,0,.14C166.65,50.92,166.65,51,166.58,51Zm-1.12,0h-.56c-.07,0-.07,0-.07-.07s0-.07.07-.07h.56c.07,0,.07,0,0,.14Zm-1.19,0h-.56c-.07,0-.07,0-.07-.07s0-.07.07-.07h.56c.07,0,.07,0,0,.14C164.35,50.92,164.35,51,164.28,51Zm-1.12,0h-.56c-.07,0-.07,0-.07-.07s0-.07.07-.07h.56c.07,0,.07,0,0,.14C163.23,50.92,163.23,51,163.16,51ZM162,51h-.56c-.07,0-.07,0-.07-.07s0-.07.07-.07H162c.07,0,.07,0,0,.14Zm-1.12,0h-.56c-.07,0-.07,0-.07-.07s0-.07.07-.07h.56c.07,0,.07,0,0,.14Zm-1.19,0h-.56c-.07,0-.07,0-.07-.07s0-.07.07-.07h.56c.07,0,.07,0,0,.14C159.81,50.92,159.81,51,159.74,51Zm-1.12,0h-.56c-.07,0-.07,0-.07-.07s0-.07.07-.07h.56c.07,0,.07,0,0,.14C158.69,50.92,158.69,51,158.62,51Zm-1.12,0h-.56c-.07,0-.07,0-.07-.07s0-.07.07-.07h.56c.07,0,.07,0,0,.14Zm-1.12,0h-.56c-.07,0-.07,0-.07-.07s0-.07.07-.07h.56c.07,0,.07,0,0,.14Zm-1.19,0h-.56c-.07,0-.07,0-.07-.07s0-.07.07-.07h.56c.07,0,.07,0,0,.14C155.26,50.92,155.26,51,155.19,51Zm-1.12,0h-.56c-.07,0-.07,0-.07-.07s0-.07.07-.07h.56c.07,0,.07,0,0,.14C154.15,50.92,154.15,51,154.08,51ZM153,51h-.56c-.07,0-.07,0-.07-.07s0-.07.07-.07H153c.07,0,.07,0,0,.14Zm-1.19,0h-.56c-.07,0-.07,0-.07-.07s0-.07.07-.07h.56c.07,0,.07,0,0,.14C151.84,50.92,151.84,51,151.77,51Z"/><path class="cls-33" d="M202.7,55h-.42c-.07,0-.07,0-.07-.07s0-.07.07-.07h.42c.07,0,.07,0,0,.14Zm-1,.07h-.56c-.07,0-.07,0-.07-.07s0-.07.07-.07h.56c.07,0,.07,0,0,.14Zm-1.19,0H200c-.07,0-.07,0-.07-.07s0-.07.07-.07h.56c.07,0,.07,0,0,.14C200.61,55,200.61,55,200.54,55Zm-1.12,0h-.56c-.07,0-.07,0-.07-.07s0-.07.07-.07h.56c.07,0,.07,0,0,.14C199.49,55,199.49,55,199.42,55Zm-1.12,0h-.56c-.07,0-.07,0-.07-.07s0-.07.07-.07h.56c.07,0,.07,0,0,.14Zm-1.19,0h-.56c-.07,0-.07,0-.07-.07s0-.07.07-.07h.56c.07,0,.07,0,0,.14C197.18,55,197.18,55,197.11,55ZM196,55h-.56c-.07,0-.07,0-.07-.07s0-.07.07-.07H196c.07,0,.07,0,0,.14C196.07,55,196.07,55,196,55Zm-1.12,0h-.56c-.07,0-.07,0-.07-.07s0-.07.07-.07h.56c.07,0,.07,0,0,.14Zm-1.12,0h-.56c-.07,0-.07,0-.07-.07s0-.07.07-.07h.56c.07,0,.07,0,0,.14Zm-1.19,0H192c-.07,0-.07,0-.07-.07s0-.07.07-.07h.56c.07,0,.07,0,0,.14C192.64,55,192.64,55,192.57,55Zm-1.12,0h-.56c-.07,0-.07,0-.07-.07s0-.07.07-.07h.56c.07,0,.07,0,0,.14Zm-1.12,0h-.56c-.07,0-.07,0-.07-.07s0-.07.07-.07h.56c.07,0,.07,0,0,.14Zm-1.12,0h-.56c-.07,0-.07,0-.07-.07s0-.07.07-.07h.56c.07,0,.07,0,0,.14Zm-1.12,0h-.56c-.07,0-.07,0-.07-.07s0-.07.07-.07h.56c.07,0,.07,0,0,.14ZM187,55h-.56c-.07,0-.07,0-.07-.07s0-.07.07-.07H187c.07,0,.07,0,0,.14C187.05,55,187.05,55,187,55Zm-1.12,0h-.56c-.07,0-.07,0-.07-.07s0-.07.07-.07h.56c.07,0,.07,0,0,.14Zm-1.19,0h-.56C184,55,184,55,184,55s0-.07.07-.07h.56c.07,0,.07,0,0,.14C184.75,55,184.75,55,184.68,55Zm-1.12,0H183c-.07,0-.07,0-.07-.07s0-.07.07-.07h.56c.07,0,.07,0,0,.14C183.63,55,183.63,55,183.56,55Zm-1.12,0h-.56c-.07,0-.07,0-.07-.07s0-.07.07-.07h.56c.07,0,.07,0,0,.14Zm-1.12,0h-.56c-.07,0-.07,0-.07-.07s0-.07.07-.07h.56c.07,0,.07,0,0,.14Zm-1.19,0h-.56c-.07,0-.07,0-.07-.07s0-.07.07-.07h.56c.07,0,.07,0,0,.14C180.21,55,180.21,55,180.14,55ZM179,55h-.56c-.07,0-.07,0-.07-.07s0-.07.07-.07H179c.07,0,.07,0,0,.14C179.09,55,179.09,55,179,55Zm-1.12,0h-.56c-.07,0-.07,0-.07-.07s0-.07.07-.07h.56c.07,0,.07,0,0,.14Zm-1.19,0h-.56c-.07,0-.07,0-.07-.07s0-.07.07-.07h.56c.07,0,.07,0,0,.14Zm-1.12,0H175C175,55,175,55,175,55s0-.07.07-.07h.56c.07,0,.07,0,0,.14C175.66,55,175.66,55,175.6,55Zm-1.12,0h-.56c-.07,0-.07,0-.07-.07s0-.07.07-.07h.56c.07,0,.07,0,0,.14Zm-1.12,0h-.56c-.07,0-.07,0-.07-.07s0-.07.07-.07h.56c.07,0,.07,0,0,.14Zm-1.19,0h-.56c-.07,0-.07,0-.07-.07s0-.07.07-.07h.56c.07,0,.07,0,0,.14Zm-1.12,0h-.56c-.07,0-.07,0-.07-.07s0-.07.07-.07h.56c.07,0,.07,0,0,.14C171.12,55,171.12,55,171.05,55Zm-1.12,0h-.56c-.07,0-.07,0-.07-.07s0-.07.07-.07h.56c.07,0,.07,0,0,.14Zm-1.12,0h-.56c-.07,0-.07,0-.07-.07s0-.07.07-.07h.56c.07,0,.07,0,0,.14Zm-1.12,0h-.56c-.07,0-.07,0-.07-.07s0-.07.07-.07h.56c.07,0,.07,0,0,.14C167.77,55,167.77,55,167.7,55Zm-1.12,0H166C166,55,166,55,166,55s0-.07.07-.07h.56c.07,0,.07,0,0,.14C166.65,55,166.65,55,166.58,55Zm-1.12,0h-.56c-.07,0-.07,0-.07-.07s0-.07.07-.07h.56c.07,0,.07,0,0,.14Zm-1.19,0h-.56c-.07,0-.07,0-.07-.07s0-.07.07-.07h.56c.07,0,.07,0,0,.14C164.35,55,164.35,55,164.28,55Zm-1.12,0h-.56c-.07,0-.07,0-.07-.07s0-.07.07-.07h.56c.07,0,.07,0,0,.14C163.23,55,163.23,55,163.16,55ZM162,55h-.56c-.07,0-.07,0-.07-.07s0-.07.07-.07H162c.07,0,.07,0,0,.14Zm-1.12,0h-.56c-.07,0-.07,0-.07-.07s0-.07.07-.07h.56c.07,0,.07,0,0,.14Zm-1.19,0h-.56c-.07,0-.07,0-.07-.07s0-.07.07-.07h.56c.07,0,.07,0,0,.14C159.81,55,159.81,55,159.74,55Zm-1.12,0h-.56C158,55,158,55,158,55s0-.07.07-.07h.56c.07,0,.07,0,0,.14C158.69,55,158.69,55,158.62,55Zm-1.12,0h-.56c-.07,0-.07,0-.07-.07s0-.07.07-.07h.56c.07,0,.07,0,0,.14Zm-1.12,0h-.56c-.07,0-.07,0-.07-.07s0-.07.07-.07h.56c.07,0,.07,0,0,.14Zm-1.19,0h-.56c-.07,0-.07,0-.07-.07s0-.07.07-.07h.56c.07,0,.07,0,0,.14C155.26,55,155.26,55,155.19,55Zm-1.12,0h-.56c-.07,0-.07,0-.07-.07s0-.07.07-.07h.56c.07,0,.07,0,0,.14C154.15,55,154.15,55,154.08,55ZM153,55h-.56c-.07,0-.07,0-.07-.07s0-.07.07-.07H153c.07,0,.07,0,0,.14Zm-1.19,0h-.56c-.07,0-.07,0-.07-.07s0-.07.07-.07h.56c.07,0,.07,0,0,.14Z"/><path class="cls-33" d="M202.7,59h-.42c-.07,0-.07,0-.07-.07s0-.07.07-.07h.42c.07,0,.07,0,0,.14Zm-1,0h-.56c-.07,0-.07,0-.07-.07s0-.07.07-.07h.56c.07,0,.07,0,0,.14Zm-1.19,0H200c-.07,0-.07,0-.07-.07s0-.07.07-.07h.56c.07,0,.07,0,0,.14Zm-1.12,0h-.56c-.07,0-.07,0-.07-.07s0-.07.07-.07h.56c.07,0,.07,0,0,.14C199.49,59,199.49,59,199.42,59Zm-1.12,0h-.56c-.07,0-.07,0-.07-.07s0-.07.07-.07h.56c.07,0,.07,0,0,.14Zm-1.19,0h-.56c-.07,0-.07,0-.07-.07s0-.07.07-.07h.56c.07,0,.07,0,0,.14ZM196,59h-.56c-.07,0-.07,0-.07-.07s0-.07.07-.07H196c.07,0,.07,0,0,.14C196.07,59,196.07,59,196,59Zm-1.12,0h-.56c-.07,0-.07,0-.07-.07s0-.07.07-.07h.56c.07,0,.07,0,0,.14Zm-1.12,0h-.56c-.07,0-.07,0-.07-.07s0-.07.07-.07h.56c.07,0,.07,0,0,.14Zm-1.19,0H192c-.07,0-.07,0-.07-.07s0-.07.07-.07h.56c.07,0,.07,0,0,.14C192.64,59,192.64,59,192.57,59Zm-1.12,0h-.56c-.07,0-.07,0-.07-.07s0-.07.07-.07h.56c.07,0,.07,0,0,.14Zm-1.12,0h-.56c-.07,0-.07,0-.07-.07s0-.07.07-.07h.56c.07,0,.07,0,0,.14Zm-1.12,0h-.56c-.07,0-.07,0-.07-.07s0-.07.07-.07h.56c.07,0,.07,0,0,.14Zm-1.12,0h-.56c-.07,0-.07,0-.07-.07s0-.07.07-.07h.56c.07,0,.07,0,0,.14ZM187,59h-.56c-.07,0-.07,0-.07-.07s0-.07.07-.07H187c.07,0,.07,0,0,.14Zm-1.12,0h-.56c-.07,0-.07,0-.07-.07s0-.07.07-.07h.56c.07,0,.07,0,0,.14Zm-1.19,0h-.56C184,59,184,59,184,59s0-.07.07-.07h.56c.07,0,.07,0,0,.14Zm-1.12,0H183c-.07,0-.07,0-.07-.07s0-.07.07-.07h.56c.07,0,.07,0,0,.14Zm-1.12,0h-.56c-.07,0-.07,0-.07-.07s0-.07.07-.07h.56c.07,0,.07,0,0,.14Zm-1.12,0h-.56c-.07,0-.07,0-.07-.07s0-.07.07-.07h.56c.07,0,.07,0,0,.14Zm-1.19,0h-.56c-.07,0-.07,0-.07-.07s0-.07.07-.07h.56c.07,0,.07,0,0,.14ZM179,59h-.56c-.07,0-.07,0-.07-.07s0-.07.07-.07H179c.07,0,.07,0,0,.14Zm-1.12,0h-.56c-.07,0-.07,0-.07-.07s0-.07.07-.07h.56c.07,0,.07,0,0,.14Zm-1.12,0h-.56c-.07,0-.07,0-.07-.07s0-.07.07-.07h.56c.07,0,.07,0,0,.14Zm-1.19,0H175C175,59,175,59,175,59s0-.07.07-.07h.56c.07,0,.07,0,0,.14Zm-1.12,0h-.56c-.07,0-.07,0-.07-.07s0-.07.07-.07h.56c.07,0,.07,0,0,.14Zm-1.12,0h-.56c-.07,0-.07,0-.07-.07s0-.07.07-.07h.56c.07,0,.07,0,0,.14Zm-1.19,0h-.56c-.07,0-.07,0-.07-.07s0-.07.07-.07h.56c.07,0,.07,0,0,.14Zm-1.12,0h-.56c-.07,0-.07,0-.07-.07s0-.07.07-.07h.56c.07,0,.07,0,0,.14Zm-1.12,0h-.56c-.07,0-.07,0-.07-.07s0-.07.07-.07h.56c.07,0,.07,0,0,.14Zm-1.12,0h-.56c-.07,0-.07,0-.07-.07s0-.07.07-.07h.56c.07,0,.07,0,0,.14Zm-1.12,0h-.56c-.07,0-.07,0-.07-.07s0-.07.07-.07h.56c.07,0,.07,0,0,.14Zm-1.12,0H166C166,59,166,59,166,59s0-.07.07-.07h.56c.07,0,.07,0,0,.14Zm-1.12,0h-.56c-.07,0-.07,0-.07-.07s0-.07.07-.07h.56c.07,0,.07,0,0,.14Zm-1.12,0h-.56c-.07,0-.07,0-.07-.07s0-.07.07-.07h.56c.07,0,.07,0,0,.14Zm-1.19,0h-.56c-.07,0-.07,0-.07-.07s0-.07.07-.07h.56c.07,0,.07,0,0,.14ZM162,59h-.56c-.07,0-.07,0-.07-.07s0-.07.07-.07H162c.07,0,.07,0,0,.14Zm-1.12,0h-.56c-.07,0-.07,0-.07-.07s0-.07.07-.07h.56c.07,0,.07,0,0,.14Zm-1.19,0h-.56c-.07,0-.07,0-.07-.07s0-.07.07-.07h.56c.07,0,.07,0,0,.14Zm-1.12,0h-.56C158,59,158,59,158,59s0-.07.07-.07h.56c.07,0,.07,0,0,.14Zm-1.12,0h-.56c-.07,0-.07,0-.07-.07s0-.07.07-.07h.56c.07,0,.07,0,0,.14Zm-1.12,0h-.56c-.07,0-.07,0-.07-.07s0-.07.07-.07h.56c.07,0,.07,0,0,.14Zm-1.19,0h-.56c-.07,0-.07,0-.07-.07s0-.07.07-.07h.56c.07,0,.07,0,0,.14Zm-1.12,0h-.56c-.07,0-.07,0-.07-.07s0-.07.07-.07h.56c.07,0,.07,0,0,.14ZM153,59h-.56c-.07,0-.07,0-.07-.07s0-.07.07-.07H153c.07,0,.07,0,0,.14Zm-1.19,0h-.56c-.07,0-.07,0-.07-.07s0-.07.07-.07h.56c.07,0,.07,0,0,.14Z"/><path class="cls-33" d="M202.7,63.07h-.42c-.07,0-.07,0-.07-.07s0-.07.07-.07h.42c.07,0,.07,0,0,.14Zm-1,0h-.56c-.07,0-.07,0-.07-.07s0-.07.07-.07h.56c.07,0,.07,0,0,.14Zm-1.19,0H200c-.07,0-.07,0-.07-.07s0-.07.07-.07h.56c.07,0,.07,0,0,.14Zm-1.12,0h-.56c-.07,0-.07,0-.07-.07s0-.07.07-.07h.56c.07,0,.07,0,0,.14Zm-1.12,0h-.56c-.07,0-.07,0-.07-.07s0-.07.07-.07h.56c.07,0,.07,0,0,.14Zm-1.12,0h-.56c-.07,0-.07,0-.07-.07s0-.07.07-.07h.56c.07,0,.07,0,0,.14Zm-1.19,0h-.56c-.07,0-.07,0-.07-.07s0-.07.07-.07H196c.07,0,.07,0,0,.14Zm-1.12,0h-.56c-.07,0-.07,0-.07-.07s0-.07.07-.07h.56c.07,0,.07,0,0,.14Zm-1.12,0h-.56c-.07,0-.07,0-.07-.07s0-.07.07-.07h.56c.07,0,.07,0,0,.14Zm-1.19,0H192c-.07,0-.07,0-.07-.07s0-.07.07-.07h.56c.07,0,.07,0,0,.14Zm-1.12,0h-.56c-.07,0-.07,0-.07-.07s0-.07.07-.07h.56c.07,0,.07,0,0,.14Zm-1.12,0h-.56c-.07,0-.07,0-.07-.07s0-.07.07-.07h.56c.07,0,.07,0,0,.14Zm-1.12,0h-.56c-.07,0-.07,0-.07-.07s0-.07.07-.07h.56c.07,0,.07,0,0,.14Zm-1.12,0h-.56c-.07,0-.07,0-.07-.07s0-.07.07-.07h.56c.07,0,.07,0,0,.14Zm-1.12,0h-.56c-.07,0-.07,0-.07-.07s0-.07.07-.07H187c.07,0,.07,0,0,.14Zm-1.12,0h-.56c-.07,0-.07,0-.07-.07s0-.07.07-.07h.56c.07,0,.07,0,0,.14Zm-1.19,0h-.56c-.07,0-.07,0-.07-.07s0-.07.07-.07h.56c.07,0,.07,0,0,.14Zm-1.12,0H183c-.07,0-.07,0-.07-.07s0-.07.07-.07h.56c.07,0,.07,0,0,.14Zm-1.12,0h-.56c-.07,0-.07,0-.07-.07s0-.07.07-.07h.56c.07,0,.07,0,0,.14Zm-1.12,0h-.56c-.07,0-.07,0-.07-.07s0-.07.07-.07h.56c.07,0,.07,0,0,.14Zm-1.19,0h-.56c-.07,0-.07,0-.07-.07s0-.07.07-.07h.56c.07,0,.07,0,0,.14Zm-1.12,0h-.56c-.07,0-.07,0-.07-.07s0-.07.07-.07H179c.07,0,.07,0,0,.14Zm-1.12,0h-.56c-.07,0-.07,0-.07-.07s0-.07.07-.07h.56c.07,0,.07,0,0,.14Zm-1.12,0h-.56c-.07,0-.07,0-.07-.07s0-.07.07-.07h.56c.07,0,.07,0,0,.14Zm-1.19,0H175c-.07,0-.07,0-.07-.07s0-.07.07-.07h.56c.07,0,.07,0,0,.14Zm-1.12,0h-.56c-.07,0-.07,0-.07-.07s0-.07.07-.07h.56c.07,0,.07,0,0,.14Zm-1.12,0h-.56c-.07,0-.07,0-.07-.07s0-.07.07-.07h.56c.07,0,.07,0,0,.14Zm-1.19,0h-.56c-.07,0-.07,0-.07-.07s0-.07.07-.07h.56c.07,0,.07,0,0,.14Zm-1.12,0h-.56c-.07,0-.07,0-.07-.07s0-.07.07-.07h.56c.07,0,.07,0,0,.14Zm-1.12,0h-.56c-.07,0-.07,0-.07-.07s0-.07.07-.07h.56c.07,0,.07,0,0,.14Zm-1.12,0h-.56c-.07,0-.07,0-.07-.07s0-.07.07-.07h.56c.07,0,.07,0,0,.14Zm-1.12,0h-.56c-.07,0-.07,0-.07-.07s0-.07.07-.07h.56c.07,0,.07,0,0,.14Zm-1.12,0H166c-.07,0-.07,0-.07-.07s0-.07.07-.07h.56c.07,0,.07,0,0,.14Zm-1.12.07h-.56c-.07,0-.07,0-.07-.07s0-.07.07-.07h.56c.07,0,.07,0,0,.14Zm-1.12,0h-.56c-.07,0-.07,0-.07-.07s0-.07.07-.07h.56c.07,0,.07,0,0,.14Zm-1.19,0h-.56c-.07,0-.07,0-.07-.07s0-.07.07-.07h.56c.07,0,.07,0,0,.14C163.23,63.07,163.23,63.14,163.16,63.14Zm-1.12,0h-.56c-.07,0-.07,0-.07-.07s0-.07.07-.07H162c.07,0,.07,0,0,.14C162.11,63.07,162.11,63.14,162,63.14Zm-1.12,0h-.56c-.07,0-.07,0-.07-.07s0-.07.07-.07h.56c.07,0,.07,0,0,.14Zm-1.19,0h-.56c-.07,0-.07,0-.07-.07s0-.07.07-.07h.56c.07,0,.07,0,0,.14C159.81,63.07,159.81,63.14,159.74,63.14Zm-1.12,0h-.56c-.07,0-.07,0-.07-.07s0-.07.07-.07h.56c.07,0,.07,0,0,.14C158.69,63.07,158.69,63.14,158.62,63.14Zm-1.12,0h-.56c-.07,0-.07,0-.07-.07s0-.07.07-.07h.56c.07,0,.07,0,0,.14Zm-1.12,0h-.56c-.07,0-.07,0-.07-.07s0-.07.07-.07h.56c.07,0,.07,0,0,.14Zm-1.19,0h-.56c-.07,0-.07,0-.07-.07s0-.07.07-.07h.56c.07,0,.07,0,0,.14Zm-1.12,0h-.56c-.07,0-.07,0-.07-.07s0-.07.07-.07h.56c.07,0,.07,0,0,.14C154.15,63.07,154.15,63.14,154.08,63.14Zm-1.12,0h-.56c-.07,0-.07,0-.07-.07s0-.07.07-.07H153c.07,0,.07,0,0,.14Zm-1.12,0h-.56c-.07,0-.07,0-.07-.07s0-.07.07-.07h.56c.07,0,.07,0,0,.14Z"/><rect class="cls-20" x="153.38" y="63.91" width="10.06" height="3.21"/><rect class="cls-10" x="165.32" y="59.58" width="10.06" height="7.55"/><rect class="cls-22" x="177.2" y="52.1" width="10.06" height="15.02"/><rect class="cls-21" x="189.08" y="48.19" width="10.06" height="18.93"/><path class="cls-33" d="M202.7,67.2H151.35a.14.14,0,1,1,0-.28H202.7a.15.15,0,0,1,.14.14C202.77,67.13,202.77,67.2,202.7,67.2Z"/><path class="cls-24" d="M173.92,73.76H157.64a.28.28,0,1,1,0-.56h16.28a.28.28,0,1,1,0,.56Z"/><path class="cls-24" d="M173.92,75.37H157.64a.28.28,0,1,1,0-.56h16.28a.28.28,0,1,1,0,.56Z"/><path class="cls-24" d="M169.8,77H157.64a.28.28,0,1,1,0-.56h12.09a.3.3,0,0,1,.28.28C170,76.84,169.94,77,169.8,77Z"/><circle class="cls-20" cx="153.45" cy="75.16" r="2.17"/><path class="cls-17" d="M153.17,76.21a.26.26,0,0,1-.21-.07l-.63-.63a.3.3,0,1,1,.42-.42l.63.63a.26.26,0,0,1,0,.42A.26.26,0,0,1,153.17,76.21Z"/><path class="cls-17" d="M153.17,76.21a.26.26,0,0,1-.21-.07.26.26,0,0,1,0-.42l1.26-1.26a.3.3,0,1,1,.42.42l-1.26,1.26A.26.26,0,0,1,153.17,76.21Z"/><path class="cls-24" d="M201.59,73.76H185.31a.28.28,0,1,1,0-.56h16.28a.28.28,0,1,1,0,.56Z"/><path class="cls-24" d="M201.59,75.37H185.31a.28.28,0,1,1,0-.56h16.28a.28.28,0,1,1,0,.56Z"/><path class="cls-24" d="M197.39,77H185.31a.28.28,0,1,1,0-.56h12.09a.28.28,0,1,1,0,.56Z"/><circle class="cls-19" cx="181.11" cy="75.16" r="2.17"/><path class="cls-17" d="M180.77,76.21a.26.26,0,0,1-.21-.07l-.63-.63a.3.3,0,1,1,.42-.42l.63.63a.26.26,0,0,1,0,.42A.26.26,0,0,1,180.77,76.21Z"/><path class="cls-17" d="M180.77,76.21a.26.26,0,0,1-.21-.07.26.26,0,0,1,0-.42l1.26-1.26a.3.3,0,1,1,.42.42L181,76.14A.26.26,0,0,1,180.77,76.21Z"/></g></svg>